G04 #@! TF.FileFunction,Legend,Bot*
%FSLAX46Y46*%
G04 Gerber Fmt 4.6, Leading zero omitted, Abs format (unit mm)*
G04 Created by KiCad (PCBNEW 4.0.2+dfsg1-stable) date Mon 05 Nov 2018 12:17:06 AM EST*
%MOMM*%
G01*
G04 APERTURE LIST*
%ADD10C,0.100000*%
%ADD11C,0.300000*%
%ADD12C,0.200000*%
%ADD13C,0.150000*%
G04 APERTURE END LIST*
D10*
D11*
X111508571Y-97771429D02*
X112508571Y-98057143D01*
X111794286Y-98342857D01*
X112508571Y-98628572D01*
X111508571Y-98914286D01*
X112508571Y-99485715D02*
X111508571Y-99485715D01*
X111008571Y-99485715D02*
X111080000Y-99414286D01*
X111151429Y-99485715D01*
X111080000Y-99557143D01*
X111008571Y-99485715D01*
X111151429Y-99485715D01*
X111508571Y-99985715D02*
X111508571Y-100557144D01*
X112508571Y-100200001D02*
X111222857Y-100200001D01*
X111080000Y-100271429D01*
X111008571Y-100414287D01*
X111008571Y-100557144D01*
X112508571Y-101057144D02*
X111508571Y-101057144D01*
X111008571Y-101057144D02*
X111080000Y-100985715D01*
X111151429Y-101057144D01*
X111080000Y-101128572D01*
X111008571Y-101057144D01*
X111151429Y-101057144D01*
X111508571Y-101628573D02*
X112508571Y-101985716D01*
X111508571Y-102342858D01*
X112508571Y-102914287D02*
X111508571Y-102914287D01*
X111008571Y-102914287D02*
X111080000Y-102842858D01*
X111151429Y-102914287D01*
X111080000Y-102985715D01*
X111008571Y-102914287D01*
X111151429Y-102914287D01*
X112437143Y-103557144D02*
X112508571Y-103700001D01*
X112508571Y-103985716D01*
X112437143Y-104128573D01*
X112294286Y-104200001D01*
X112222857Y-104200001D01*
X112080000Y-104128573D01*
X112008571Y-103985716D01*
X112008571Y-103771430D01*
X111937143Y-103628573D01*
X111794286Y-103557144D01*
X111722857Y-103557144D01*
X111580000Y-103628573D01*
X111508571Y-103771430D01*
X111508571Y-103985716D01*
X111580000Y-104128573D01*
X112508571Y-104842859D02*
X111008571Y-104842859D01*
X111580000Y-104842859D02*
X111508571Y-104985716D01*
X111508571Y-105271430D01*
X111580000Y-105414287D01*
X111651429Y-105485716D01*
X111794286Y-105557145D01*
X112222857Y-105557145D01*
X112365714Y-105485716D01*
X112437143Y-105414287D01*
X112508571Y-105271430D01*
X112508571Y-104985716D01*
X112437143Y-104842859D01*
X112508571Y-106414288D02*
X112437143Y-106271430D01*
X112365714Y-106200002D01*
X112222857Y-106128573D01*
X111794286Y-106128573D01*
X111651429Y-106200002D01*
X111580000Y-106271430D01*
X111508571Y-106414288D01*
X111508571Y-106628573D01*
X111580000Y-106771430D01*
X111651429Y-106842859D01*
X111794286Y-106914288D01*
X112222857Y-106914288D01*
X112365714Y-106842859D01*
X112437143Y-106771430D01*
X112508571Y-106628573D01*
X112508571Y-106414288D01*
X112508571Y-108200002D02*
X111722857Y-108200002D01*
X111580000Y-108128573D01*
X111508571Y-107985716D01*
X111508571Y-107700002D01*
X111580000Y-107557145D01*
X112437143Y-108200002D02*
X112508571Y-108057145D01*
X112508571Y-107700002D01*
X112437143Y-107557145D01*
X112294286Y-107485716D01*
X112151429Y-107485716D01*
X112008571Y-107557145D01*
X111937143Y-107700002D01*
X111937143Y-108057145D01*
X111865714Y-108200002D01*
X112508571Y-108914288D02*
X111508571Y-108914288D01*
X111794286Y-108914288D02*
X111651429Y-108985716D01*
X111580000Y-109057145D01*
X111508571Y-109200002D01*
X111508571Y-109342859D01*
X112508571Y-110485716D02*
X111008571Y-110485716D01*
X112437143Y-110485716D02*
X112508571Y-110342859D01*
X112508571Y-110057145D01*
X112437143Y-109914287D01*
X112365714Y-109842859D01*
X112222857Y-109771430D01*
X111794286Y-109771430D01*
X111651429Y-109842859D01*
X111580000Y-109914287D01*
X111508571Y-110057145D01*
X111508571Y-110342859D01*
X111580000Y-110485716D01*
X112508571Y-112342859D02*
X111508571Y-112342859D01*
X111794286Y-112342859D02*
X111651429Y-112414287D01*
X111580000Y-112485716D01*
X111508571Y-112628573D01*
X111508571Y-112771430D01*
X112437143Y-113842858D02*
X112508571Y-113700001D01*
X112508571Y-113414287D01*
X112437143Y-113271430D01*
X112294286Y-113200001D01*
X111722857Y-113200001D01*
X111580000Y-113271430D01*
X111508571Y-113414287D01*
X111508571Y-113700001D01*
X111580000Y-113842858D01*
X111722857Y-113914287D01*
X111865714Y-113914287D01*
X112008571Y-113200001D01*
X111508571Y-114414287D02*
X112508571Y-114771430D01*
X111508571Y-115128572D01*
X111937143Y-116842858D02*
X111937143Y-117985715D01*
X113551429Y-100842858D02*
X113480000Y-100914287D01*
X113408571Y-101057144D01*
X113408571Y-101414287D01*
X113480000Y-101557144D01*
X113551429Y-101628573D01*
X113694286Y-101700001D01*
X113837143Y-101700001D01*
X114051429Y-101628573D01*
X114908571Y-100771430D01*
X114908571Y-101700001D01*
X113408571Y-102628572D02*
X113408571Y-102771429D01*
X113480000Y-102914286D01*
X113551429Y-102985715D01*
X113694286Y-103057144D01*
X113980000Y-103128572D01*
X114337143Y-103128572D01*
X114622857Y-103057144D01*
X114765714Y-102985715D01*
X114837143Y-102914286D01*
X114908571Y-102771429D01*
X114908571Y-102628572D01*
X114837143Y-102485715D01*
X114765714Y-102414286D01*
X114622857Y-102342858D01*
X114337143Y-102271429D01*
X113980000Y-102271429D01*
X113694286Y-102342858D01*
X113551429Y-102414286D01*
X113480000Y-102485715D01*
X113408571Y-102628572D01*
X114908571Y-104557143D02*
X114908571Y-103700000D01*
X114908571Y-104128572D02*
X113408571Y-104128572D01*
X113622857Y-103985715D01*
X113765714Y-103842857D01*
X113837143Y-103700000D01*
X114051429Y-105414286D02*
X113980000Y-105271428D01*
X113908571Y-105200000D01*
X113765714Y-105128571D01*
X113694286Y-105128571D01*
X113551429Y-105200000D01*
X113480000Y-105271428D01*
X113408571Y-105414286D01*
X113408571Y-105700000D01*
X113480000Y-105842857D01*
X113551429Y-105914286D01*
X113694286Y-105985714D01*
X113765714Y-105985714D01*
X113908571Y-105914286D01*
X113980000Y-105842857D01*
X114051429Y-105700000D01*
X114051429Y-105414286D01*
X114122857Y-105271428D01*
X114194286Y-105200000D01*
X114337143Y-105128571D01*
X114622857Y-105128571D01*
X114765714Y-105200000D01*
X114837143Y-105271428D01*
X114908571Y-105414286D01*
X114908571Y-105700000D01*
X114837143Y-105842857D01*
X114765714Y-105914286D01*
X114622857Y-105985714D01*
X114337143Y-105985714D01*
X114194286Y-105914286D01*
X114122857Y-105842857D01*
X114051429Y-105700000D01*
X114765714Y-108628571D02*
X114837143Y-108557142D01*
X114908571Y-108342856D01*
X114908571Y-108199999D01*
X114837143Y-107985714D01*
X114694286Y-107842856D01*
X114551429Y-107771428D01*
X114265714Y-107699999D01*
X114051429Y-107699999D01*
X113765714Y-107771428D01*
X113622857Y-107842856D01*
X113480000Y-107985714D01*
X113408571Y-108199999D01*
X113408571Y-108342856D01*
X113480000Y-108557142D01*
X113551429Y-108628571D01*
X114908571Y-109271428D02*
X113408571Y-109271428D01*
X114908571Y-110128571D01*
X113408571Y-110128571D01*
X114908571Y-111557143D02*
X114908571Y-110842857D01*
X113408571Y-110842857D01*
X114908571Y-112271429D02*
X114837143Y-112128571D01*
X114765714Y-112057143D01*
X114622857Y-111985714D01*
X114194286Y-111985714D01*
X114051429Y-112057143D01*
X113980000Y-112128571D01*
X113908571Y-112271429D01*
X113908571Y-112485714D01*
X113980000Y-112628571D01*
X114051429Y-112700000D01*
X114194286Y-112771429D01*
X114622857Y-112771429D01*
X114765714Y-112700000D01*
X114837143Y-112628571D01*
X114908571Y-112485714D01*
X114908571Y-112271429D01*
X114908571Y-113414286D02*
X113408571Y-113414286D01*
X114908571Y-114057143D02*
X114122857Y-114057143D01*
X113980000Y-113985714D01*
X113908571Y-113842857D01*
X113908571Y-113628572D01*
X113980000Y-113485714D01*
X114051429Y-113414286D01*
X114908571Y-114771429D02*
X113908571Y-114771429D01*
X114194286Y-114771429D02*
X114051429Y-114842857D01*
X113980000Y-114914286D01*
X113908571Y-115057143D01*
X113908571Y-115200000D01*
D12*
X130810000Y-131445000D02*
X130175000Y-130810000D01*
X129540000Y-131445000D02*
X130810000Y-131445000D01*
X128905000Y-132080000D02*
X129540000Y-131445000D01*
X128905000Y-132715000D02*
X128905000Y-132080000D01*
X129540000Y-132715000D02*
X128905000Y-132715000D01*
X130175000Y-132080000D02*
X129540000Y-132715000D01*
X130175000Y-130810000D02*
X130175000Y-132080000D01*
X130810000Y-131445000D02*
X130175000Y-130810000D01*
D13*
X110000000Y-73000000D02*
X110000000Y-133000000D01*
X110000000Y-133000000D02*
X94000000Y-133000000D01*
X94000000Y-133000000D02*
X94000000Y-73000000D01*
X94000000Y-73000000D02*
X110000000Y-73000000D01*
X116000000Y-134000000D02*
X116000000Y-74000000D01*
X116000000Y-74000000D02*
X132000000Y-74000000D01*
X132000000Y-74000000D02*
X132000000Y-134000000D01*
X132000000Y-134000000D02*
X116000000Y-134000000D01*
X106428571Y-102214286D02*
X106476190Y-102357143D01*
X106523810Y-102404762D01*
X106619048Y-102452381D01*
X106761905Y-102452381D01*
X106857143Y-102404762D01*
X106904762Y-102357143D01*
X106952381Y-102261905D01*
X106952381Y-101880952D01*
X105952381Y-101880952D01*
X105952381Y-102214286D01*
X106000000Y-102309524D01*
X106047619Y-102357143D01*
X106142857Y-102404762D01*
X106238095Y-102404762D01*
X106333333Y-102357143D01*
X106380952Y-102309524D01*
X106428571Y-102214286D01*
X106428571Y-101880952D01*
X105952381Y-102738095D02*
X105952381Y-103309524D01*
X106952381Y-103023809D02*
X105952381Y-103023809D01*
X106952381Y-104166667D02*
X106952381Y-103595238D01*
X106952381Y-103880952D02*
X105952381Y-103880952D01*
X106095238Y-103785714D01*
X106190476Y-103690476D01*
X106238095Y-103595238D01*
X119428571Y-103214286D02*
X119476190Y-103357143D01*
X119523810Y-103404762D01*
X119619048Y-103452381D01*
X119761905Y-103452381D01*
X119857143Y-103404762D01*
X119904762Y-103357143D01*
X119952381Y-103261905D01*
X119952381Y-102880952D01*
X118952381Y-102880952D01*
X118952381Y-103214286D01*
X119000000Y-103309524D01*
X119047619Y-103357143D01*
X119142857Y-103404762D01*
X119238095Y-103404762D01*
X119333333Y-103357143D01*
X119380952Y-103309524D01*
X119428571Y-103214286D01*
X119428571Y-102880952D01*
X118952381Y-103738095D02*
X118952381Y-104309524D01*
X119952381Y-104023809D02*
X118952381Y-104023809D01*
X119047619Y-104595238D02*
X119000000Y-104642857D01*
X118952381Y-104738095D01*
X118952381Y-104976191D01*
X119000000Y-105071429D01*
X119047619Y-105119048D01*
X119142857Y-105166667D01*
X119238095Y-105166667D01*
X119380952Y-105119048D01*
X119952381Y-104547619D01*
X119952381Y-105166667D01*
M02*
