M48
INCH,TZ
T1C0.013
T2C0.031
T3C0.035
T4C0.040
%
G90
G05
T1
X37795Y-29134
X37795Y-35039
X37795Y-38976
X37795Y-42913
X37795Y-46850
X38177Y-36673
X38189Y-28740
X38189Y-32677
X38189Y-40551
X38189Y-44488
X38189Y-48425
X38189Y-50394
X38323Y-51425
X38583Y-38976
X38583Y-41142
X38665Y-31047
X38780Y-50394
X39764Y-34720
X40500Y-40500
X40732Y-33055
X40744Y-45709
X40866Y-34634
X41500Y-44500
X42063Y-41622
X42280Y-37193
X43051Y-31000
X45276Y-50787
X45276Y-51181
X46063Y-50000
X46130Y-45024
X46217Y-34945
X46457Y-35433
X46750Y-47500
X46850Y-49606
X46909Y-33079
X47244Y-50000
X47250Y-37250
X48500Y-34709
X48665Y-31406
X48709Y-28315
X48750Y-42750
X48795Y-32020
X48862Y-32980
X49028Y-33339
X49457Y-32201
X50787Y-28740
X50787Y-29528
X50787Y-33465
X50787Y-37402
X50787Y-41390
X50787Y-45276
X50787Y-49213
X51181Y-31102
X51181Y-34843
X51181Y-38780
X51181Y-43110
X51181Y-46850
X51476Y-50764
X51575Y-48819
T2
X40157Y-30531
X40157Y-51004
X48819Y-30492
X48819Y-50965
T3
X45512Y-52165
X48189Y-52165
T4
X43800Y-35250
X43800Y-36250
X44800Y-35250
X44800Y-36250
T0
M30
