G04 #@! TF.FileFunction,Copper,L1,Top,Signal*
%FSLAX46Y46*%
G04 Gerber Fmt 4.6, Leading zero omitted, Abs format (unit mm)*
G04 Created by KiCad (PCBNEW 4.0.2+dfsg1-stable) date Mon 05 Nov 2018 12:17:06 AM EST*
%MOMM*%
G01*
G04 APERTURE LIST*
%ADD10C,0.100000*%
%ADD11R,1.000000X1.250000*%
%ADD12R,1.000000X1.500000*%
%ADD13O,3.000000X1.000000*%
%ADD14O,1.000000X3.000000*%
%ADD15R,1.727200X2.032000*%
%ADD16O,1.727200X2.032000*%
%ADD17R,0.390000X1.350000*%
%ADD18O,3.500000X1.560000*%
%ADD19O,2.250000X1.500000*%
%ADD20R,1.727200X1.727200*%
%ADD21O,1.727200X1.727200*%
%ADD22R,0.700000X1.300000*%
%ADD23C,1.200000*%
%ADD24R,1.200000X2.500000*%
%ADD25C,1.600000*%
%ADD26R,1.300000X0.700000*%
%ADD27R,2.032000X3.657600*%
%ADD28R,2.032000X1.016000*%
%ADD29R,1.250000X1.000000*%
%ADD30C,0.600000*%
%ADD31C,0.381000*%
%ADD32C,0.254000*%
G04 APERTURE END LIST*
D10*
D11*
X119000000Y-90000000D03*
X121000000Y-90000000D03*
D12*
X127400000Y-76450000D03*
X128950000Y-76450000D03*
X130600000Y-76450000D03*
X130600000Y-71550000D03*
X129000000Y-71550000D03*
X127400000Y-71550000D03*
X127400000Y-86450000D03*
X128950000Y-86450000D03*
X130600000Y-86450000D03*
X130600000Y-81550000D03*
X129000000Y-81550000D03*
X127400000Y-81550000D03*
X127400000Y-96450000D03*
X128950000Y-96450000D03*
X130600000Y-96450000D03*
X130600000Y-91550000D03*
X129000000Y-91550000D03*
X127400000Y-91550000D03*
X127400000Y-106450000D03*
X128950000Y-106450000D03*
X130600000Y-106450000D03*
X130600000Y-101550000D03*
X129000000Y-101550000D03*
X127400000Y-101550000D03*
X127400000Y-116450000D03*
X128950000Y-116450000D03*
X130600000Y-116450000D03*
X130600000Y-111550000D03*
X129000000Y-111550000D03*
X127400000Y-111550000D03*
X127400000Y-126450000D03*
X128950000Y-126450000D03*
X130600000Y-126450000D03*
X130600000Y-121550000D03*
X129000000Y-121550000D03*
X127400000Y-121550000D03*
X98600000Y-121550000D03*
X97050000Y-121550000D03*
X95400000Y-121550000D03*
X95400000Y-126450000D03*
X97000000Y-126450000D03*
X98600000Y-126450000D03*
X98600000Y-111550000D03*
X97050000Y-111550000D03*
X95400000Y-111550000D03*
X95400000Y-116450000D03*
X97000000Y-116450000D03*
X98600000Y-116450000D03*
X98600000Y-101550000D03*
X97050000Y-101550000D03*
X95400000Y-101550000D03*
X95400000Y-106450000D03*
X97000000Y-106450000D03*
X98600000Y-106450000D03*
X98600000Y-91550000D03*
X97050000Y-91550000D03*
X95400000Y-91550000D03*
X95400000Y-96450000D03*
X97000000Y-96450000D03*
X98600000Y-96450000D03*
X98600000Y-81550000D03*
X97050000Y-81550000D03*
X95400000Y-81550000D03*
X95400000Y-86450000D03*
X97000000Y-86450000D03*
X98600000Y-86450000D03*
X98600000Y-71550000D03*
X97050000Y-71550000D03*
X95400000Y-71550000D03*
X95400000Y-76450000D03*
X97000000Y-76450000D03*
X98600000Y-76450000D03*
D13*
X105000000Y-71000000D03*
X105000000Y-73000000D03*
X105000000Y-75000000D03*
X105000000Y-77000000D03*
X105000000Y-79000000D03*
X105000000Y-81000000D03*
X105000000Y-83000000D03*
X105000000Y-85000000D03*
D14*
X108000000Y-86000000D03*
X110000000Y-86000000D03*
X112000000Y-86000000D03*
X114000000Y-86000000D03*
X116000000Y-86000000D03*
X118000000Y-86000000D03*
D13*
X121000000Y-85000000D03*
X121000000Y-83000000D03*
X121000000Y-81000000D03*
X121000000Y-79000000D03*
X121000000Y-77000000D03*
X121000000Y-75000000D03*
X121000000Y-73000000D03*
X121000000Y-71000000D03*
D15*
X118000000Y-123000000D03*
D16*
X115460000Y-123000000D03*
X112920000Y-123000000D03*
X110380000Y-123000000D03*
X107840000Y-123000000D03*
D17*
X107700000Y-129300000D03*
X108350000Y-129300000D03*
X109000000Y-129300000D03*
X109650000Y-129300000D03*
X110300000Y-129300000D03*
D18*
X111500000Y-132000000D03*
X106500000Y-132000000D03*
D19*
X112000000Y-129300000D03*
X106000000Y-129300000D03*
D20*
X113792000Y-92075000D03*
D21*
X111252000Y-92075000D03*
X113792000Y-89535000D03*
X111252000Y-89535000D03*
D22*
X100930000Y-79610000D03*
X102830000Y-79610000D03*
X100790000Y-85050000D03*
X102690000Y-85050000D03*
D10*
G36*
X107693164Y-102185516D02*
X106986057Y-101478409D01*
X109178088Y-99286378D01*
X109885195Y-99993485D01*
X107693164Y-102185516D01*
X107693164Y-102185516D01*
G37*
G36*
X110521591Y-105013943D02*
X109814484Y-104306836D01*
X112006515Y-102114805D01*
X112713622Y-102821912D01*
X110521591Y-105013943D01*
X110521591Y-105013943D01*
G37*
G36*
X116821912Y-98713622D02*
X116114805Y-98006515D01*
X118306836Y-95814484D01*
X119013943Y-96521591D01*
X116821912Y-98713622D01*
X116821912Y-98713622D01*
G37*
G36*
X113993485Y-95885195D02*
X113286378Y-95178088D01*
X115478409Y-92986057D01*
X116185516Y-93693164D01*
X113993485Y-95885195D01*
X113993485Y-95885195D01*
G37*
G36*
X109185516Y-111306836D02*
X108478409Y-112013943D01*
X106286378Y-109821912D01*
X106993485Y-109114805D01*
X109185516Y-111306836D01*
X109185516Y-111306836D01*
G37*
G36*
X112013943Y-108478409D02*
X111306836Y-109185516D01*
X109114805Y-106993485D01*
X109821912Y-106286378D01*
X112013943Y-108478409D01*
X112013943Y-108478409D01*
G37*
G36*
X105713622Y-102178088D02*
X105006515Y-102885195D01*
X102814484Y-100693164D01*
X103521591Y-99986057D01*
X105713622Y-102178088D01*
X105713622Y-102178088D01*
G37*
G36*
X102885195Y-105006515D02*
X102178088Y-105713622D01*
X99986057Y-103521591D01*
X100693164Y-102814484D01*
X102885195Y-105006515D01*
X102885195Y-105006515D01*
G37*
G36*
X114693164Y-109185516D02*
X113986057Y-108478409D01*
X116178088Y-106286378D01*
X116885195Y-106993485D01*
X114693164Y-109185516D01*
X114693164Y-109185516D01*
G37*
G36*
X117521591Y-112013943D02*
X116814484Y-111306836D01*
X119006515Y-109114805D01*
X119713622Y-109821912D01*
X117521591Y-112013943D01*
X117521591Y-112013943D01*
G37*
G36*
X123821912Y-105713622D02*
X123114805Y-105006515D01*
X125306836Y-102814484D01*
X126013943Y-103521591D01*
X123821912Y-105713622D01*
X123821912Y-105713622D01*
G37*
G36*
X120993485Y-102885195D02*
X120286378Y-102178088D01*
X122478409Y-99986057D01*
X123185516Y-100693164D01*
X120993485Y-102885195D01*
X120993485Y-102885195D01*
G37*
D23*
X115600000Y-132500000D03*
X122400000Y-132500000D03*
D24*
X116500000Y-129700000D03*
X119000000Y-129700000D03*
X121500000Y-129700000D03*
D25*
X102000000Y-129550000D03*
X102000000Y-77550000D03*
X124000000Y-77450000D03*
X124000000Y-129450000D03*
D26*
X102000000Y-73050000D03*
X102000000Y-74950000D03*
D27*
X114302000Y-116000000D03*
D28*
X107698000Y-116000000D03*
X107698000Y-118286000D03*
X107698000Y-113714000D03*
D29*
X105000000Y-117000000D03*
X105000000Y-115000000D03*
D30*
X115000000Y-129000000D03*
X115000000Y-130000000D03*
X118745000Y-120650000D03*
X117000000Y-127000000D03*
X120015000Y-94615000D03*
X123825000Y-108585000D03*
X102870000Y-102870000D03*
X105410000Y-113030000D03*
X119150000Y-84020000D03*
X117390000Y-88760000D03*
X98210000Y-78860000D03*
X109350000Y-78740000D03*
X130000000Y-119000000D03*
X130000000Y-109500000D03*
X130000000Y-98500000D03*
X130000000Y-88500000D03*
X130000000Y-79000000D03*
X96000000Y-89000000D03*
X96000000Y-109000000D03*
X96000000Y-119000000D03*
X96000000Y-99000000D03*
X97000000Y-128000000D03*
X96000000Y-74000000D03*
X129000000Y-73000000D03*
X129000000Y-105130000D03*
X96970000Y-93150000D03*
X117170000Y-114360000D03*
X103490000Y-116100000D03*
X101000000Y-88190000D03*
X103800000Y-87970000D03*
X118000000Y-90000000D03*
X129000000Y-95000000D03*
X129000000Y-85000000D03*
X129000000Y-75000000D03*
X120000000Y-127000000D03*
X97000000Y-113000000D03*
X97000000Y-103000000D03*
X97000000Y-83000000D03*
X97000000Y-73000000D03*
X129000000Y-125000000D03*
X129000000Y-115000000D03*
X119000000Y-126000000D03*
X97000000Y-123000000D03*
X125620000Y-81790000D03*
X124530000Y-84680000D03*
X131000000Y-124000000D03*
X98500000Y-128000000D03*
X130750000Y-128940000D03*
X97340000Y-130620000D03*
X98000000Y-99000000D03*
X98000000Y-104500000D03*
X103460000Y-83960000D03*
X106840000Y-105720000D03*
X123190000Y-88160000D03*
X123940000Y-81330000D03*
X123610000Y-79770000D03*
X107390000Y-94470000D03*
X124110000Y-83770000D03*
X123720000Y-71920000D03*
D31*
X128905000Y-132715000D02*
X128905000Y-132080000D01*
X129540000Y-132715000D02*
X128905000Y-132715000D01*
X130175000Y-132080000D02*
X129540000Y-132715000D01*
X130175000Y-130810000D02*
X130175000Y-132080000D01*
X130810000Y-131445000D02*
X130175000Y-130810000D01*
X129540000Y-131445000D02*
X130810000Y-131445000D01*
X128905000Y-132080000D02*
X129540000Y-131445000D01*
X116500000Y-129700000D02*
X116500000Y-129500000D01*
X116500000Y-129500000D02*
X116000000Y-129000000D01*
X116000000Y-129000000D02*
X115000000Y-129000000D01*
X116500000Y-129700000D02*
X115300000Y-129700000D01*
X115300000Y-129700000D02*
X115000000Y-130000000D01*
X118000000Y-123000000D02*
X118000000Y-121395000D01*
X118000000Y-121395000D02*
X118745000Y-120650000D01*
X117000000Y-127000000D02*
X116840000Y-127000000D01*
X117564374Y-97264053D02*
X117564374Y-97065626D01*
X117564374Y-97065626D02*
X120015000Y-94615000D01*
X124564374Y-104264053D02*
X124564374Y-107845626D01*
X124564374Y-107845626D02*
X123825000Y-108585000D01*
X104264053Y-101435626D02*
X104264053Y-101475947D01*
X104264053Y-101475947D02*
X102870000Y-102870000D01*
X105000000Y-115000000D02*
X105000000Y-113440000D01*
X105000000Y-113440000D02*
X105410000Y-113030000D01*
X117130000Y-131720000D02*
X121630000Y-131720000D01*
X115450000Y-131230000D02*
X115620000Y-131400000D01*
X115620000Y-131400000D02*
X116810000Y-131400000D01*
X116810000Y-131400000D02*
X117130000Y-131720000D01*
X111500000Y-132000000D02*
X113350000Y-132000000D01*
X113350000Y-132000000D02*
X114120000Y-131230000D01*
X114120000Y-131230000D02*
X115450000Y-131230000D01*
X122450000Y-131450000D02*
X123060000Y-130840000D01*
X121900000Y-131450000D02*
X122450000Y-131450000D01*
X121630000Y-131720000D02*
X121900000Y-131450000D01*
X111500000Y-132000000D02*
X111500000Y-129800000D01*
X111500000Y-129800000D02*
X112000000Y-129300000D01*
X106500000Y-132000000D02*
X111500000Y-132000000D01*
X106000000Y-129300000D02*
X106000000Y-131500000D01*
X106000000Y-131500000D02*
X106500000Y-132000000D01*
X112000000Y-129300000D02*
X112000000Y-128730000D01*
X112000000Y-128730000D02*
X110635000Y-127365000D01*
X119150000Y-84020000D02*
X119150000Y-85990000D01*
X119150000Y-85990000D02*
X120225000Y-87065000D01*
X120225000Y-87065000D02*
X120255000Y-87095000D01*
X120130000Y-85000000D02*
X119150000Y-84020000D01*
X121000000Y-85000000D02*
X120130000Y-85000000D01*
X121000000Y-85000000D02*
X121000000Y-86350000D01*
X121000000Y-86350000D02*
X120255000Y-87095000D01*
X120255000Y-87095000D02*
X118590000Y-88760000D01*
X118590000Y-88760000D02*
X117390000Y-88760000D01*
X105000000Y-115000000D02*
X106412000Y-115000000D01*
X106412000Y-115000000D02*
X107698000Y-113714000D01*
X121000000Y-83000000D02*
X113610000Y-83000000D01*
X97000000Y-77650000D02*
X97000000Y-76450000D01*
X98210000Y-78860000D02*
X97000000Y-77650000D01*
X113610000Y-83000000D02*
X109350000Y-78740000D01*
X121000000Y-83000000D02*
X121000000Y-85000000D01*
X104264053Y-98435626D02*
X104264053Y-98225947D01*
X121000000Y-90000000D02*
X121000000Y-90828427D01*
X121000000Y-90828427D02*
X117564374Y-94264053D01*
X129000000Y-102520000D02*
X129000000Y-101550000D01*
X128400000Y-103120000D02*
X129000000Y-102520000D01*
X125370000Y-103120000D02*
X128400000Y-103120000D01*
X104264053Y-98435626D02*
X101124374Y-98435626D01*
X96850000Y-99850000D02*
X96000000Y-99000000D01*
X99710000Y-99850000D02*
X96850000Y-99850000D01*
X101124374Y-98435626D02*
X99710000Y-99850000D01*
X129000000Y-121550000D02*
X129000000Y-120000000D01*
X129000000Y-120000000D02*
X130000000Y-119000000D01*
X129000000Y-111550000D02*
X129000000Y-110500000D01*
X129000000Y-110500000D02*
X130000000Y-109500000D01*
X129000000Y-101550000D02*
X129000000Y-99500000D01*
X129000000Y-99500000D02*
X130000000Y-98500000D01*
X129000000Y-91550000D02*
X129000000Y-89500000D01*
X129000000Y-89500000D02*
X130000000Y-88500000D01*
X129000000Y-81550000D02*
X129000000Y-80000000D01*
X129000000Y-80000000D02*
X130000000Y-79000000D01*
X97000000Y-86450000D02*
X97000000Y-88000000D01*
X97000000Y-88000000D02*
X96000000Y-89000000D01*
X97000000Y-106450000D02*
X97000000Y-108000000D01*
X97000000Y-108000000D02*
X96000000Y-109000000D01*
X97000000Y-116450000D02*
X97000000Y-118000000D01*
X97000000Y-118000000D02*
X96000000Y-119000000D01*
X96000000Y-99000000D02*
X97000000Y-98000000D01*
X97000000Y-98000000D02*
X97000000Y-96450000D01*
X121000000Y-83000000D02*
X128500000Y-83000000D01*
X129000000Y-82500000D02*
X129000000Y-81550000D01*
X128500000Y-83000000D02*
X129000000Y-82500000D01*
X97000000Y-128000000D02*
X97000000Y-126450000D01*
X110300000Y-129300000D02*
X110300000Y-127700000D01*
X116000000Y-125000000D02*
X118000000Y-123000000D01*
X113000000Y-125000000D02*
X116000000Y-125000000D01*
X110300000Y-127700000D02*
X110635000Y-127365000D01*
X110635000Y-127365000D02*
X113000000Y-125000000D01*
X124000000Y-129450000D02*
X124000000Y-125000000D01*
X122000000Y-123000000D02*
X118000000Y-123000000D01*
X124000000Y-125000000D02*
X122000000Y-123000000D01*
X97000000Y-76450000D02*
X97000000Y-76000000D01*
X97000000Y-76000000D02*
X96000000Y-75000000D01*
X96000000Y-75000000D02*
X96000000Y-74000000D01*
X129000000Y-73000000D02*
X129000000Y-71550000D01*
X114930000Y-92070000D02*
X114925000Y-92075000D01*
X114925000Y-92075000D02*
X113792000Y-92075000D01*
X128950000Y-106450000D02*
X128950000Y-105180000D01*
X128950000Y-105180000D02*
X129000000Y-105130000D01*
X129010000Y-105120000D02*
X129010000Y-105110000D01*
X129000000Y-105130000D02*
X129010000Y-105120000D01*
X97050000Y-91550000D02*
X97050000Y-93070000D01*
X97050000Y-93070000D02*
X96970000Y-93150000D01*
X114930000Y-92070000D02*
X117000000Y-90000000D01*
X114302000Y-116000000D02*
X115530000Y-116000000D01*
X115530000Y-116000000D02*
X117170000Y-114360000D01*
X107698000Y-116000000D02*
X103590000Y-116000000D01*
X103590000Y-116000000D02*
X103490000Y-116100000D01*
X107698000Y-116000000D02*
X114302000Y-116000000D01*
X105000000Y-85000000D02*
X105000000Y-87190000D01*
X105000000Y-87190000D02*
X105810000Y-88000000D01*
X105000000Y-88000000D02*
X103830000Y-88000000D01*
X117000000Y-90000000D02*
X115000000Y-88000000D01*
X115000000Y-88000000D02*
X108870000Y-88000000D01*
X108870000Y-88000000D02*
X105810000Y-88000000D01*
X105810000Y-88000000D02*
X105000000Y-88000000D01*
X118000000Y-90000000D02*
X117000000Y-90000000D01*
X100790000Y-87980000D02*
X100790000Y-85050000D01*
X101000000Y-88190000D02*
X100790000Y-87980000D01*
X103830000Y-88000000D02*
X103800000Y-87970000D01*
X100930000Y-79610000D02*
X100930000Y-78290000D01*
X100690000Y-75320000D02*
X100320000Y-74950000D01*
X100690000Y-78050000D02*
X100690000Y-75320000D01*
X100930000Y-78290000D02*
X100690000Y-78050000D01*
X118000000Y-90000000D02*
X119000000Y-90000000D01*
X128950000Y-96450000D02*
X128950000Y-95050000D01*
X128950000Y-95050000D02*
X129000000Y-95000000D01*
X129000000Y-85000000D02*
X128950000Y-85050000D01*
X128950000Y-85050000D02*
X128950000Y-86450000D01*
X128950000Y-75050000D02*
X128950000Y-76450000D01*
X129000000Y-75000000D02*
X128950000Y-75050000D01*
X120000000Y-128000000D02*
X120000000Y-127000000D01*
X119000000Y-129000000D02*
X120000000Y-128000000D01*
X97050000Y-111550000D02*
X97050000Y-112950000D01*
X97050000Y-112950000D02*
X97000000Y-113000000D01*
X97050000Y-101550000D02*
X97050000Y-102950000D01*
X97050000Y-102950000D02*
X97000000Y-103000000D01*
X97050000Y-81550000D02*
X97050000Y-82950000D01*
X97050000Y-82950000D02*
X97000000Y-83000000D01*
X97000000Y-73000000D02*
X97050000Y-73000000D01*
X97050000Y-73000000D02*
X97000000Y-73000000D01*
X97000000Y-73000000D02*
X97050000Y-73000000D01*
X128950000Y-126450000D02*
X128950000Y-125050000D01*
X128950000Y-125050000D02*
X129000000Y-125000000D01*
X128950000Y-115050000D02*
X128950000Y-116450000D01*
X129000000Y-115000000D02*
X128950000Y-115050000D01*
X119000000Y-129700000D02*
X119000000Y-129000000D01*
X97050000Y-121550000D02*
X97050000Y-122950000D01*
X119000000Y-126000000D02*
X119000000Y-129700000D01*
X97050000Y-122950000D02*
X97000000Y-123000000D01*
X102000000Y-74950000D02*
X100320000Y-74950000D01*
X100320000Y-74950000D02*
X98780000Y-74950000D01*
X97050000Y-73220000D02*
X97050000Y-73000000D01*
X97050000Y-73000000D02*
X97050000Y-71550000D01*
X98780000Y-74950000D02*
X97050000Y-73220000D01*
X102000000Y-74950000D02*
X104950000Y-74950000D01*
X104950000Y-74950000D02*
X105000000Y-75000000D01*
X130600000Y-76450000D02*
X130600000Y-77600000D01*
X130600000Y-79900000D02*
X130600000Y-81550000D01*
X131000000Y-79500000D02*
X130600000Y-79900000D01*
X131000000Y-78000000D02*
X131000000Y-79500000D01*
X130600000Y-77600000D02*
X131000000Y-78000000D01*
X130600000Y-81550000D02*
X130600000Y-82900000D01*
X126000000Y-90150000D02*
X127400000Y-91550000D01*
X126000000Y-85000000D02*
X126000000Y-90150000D01*
X127000000Y-84000000D02*
X126000000Y-85000000D01*
X129500000Y-84000000D02*
X127000000Y-84000000D01*
X130600000Y-82900000D02*
X129500000Y-84000000D01*
X121675000Y-113175000D02*
X121770000Y-113080000D01*
X125860000Y-81550000D02*
X125620000Y-81790000D01*
X124530000Y-84680000D02*
X124500000Y-84710000D01*
X124500000Y-84710000D02*
X124500000Y-86980000D01*
X124500000Y-86980000D02*
X124920000Y-87400000D01*
X124920000Y-87400000D02*
X124920000Y-98318028D01*
X125860000Y-81550000D02*
X127400000Y-81550000D01*
X124920000Y-100860000D02*
X124920000Y-98318028D01*
X121770000Y-104010000D02*
X124920000Y-100860000D01*
X121770000Y-113080000D02*
X121770000Y-104010000D01*
X115460000Y-119390000D02*
X115460000Y-123000000D01*
X121730000Y-113120000D02*
X121675000Y-113175000D01*
X121675000Y-113175000D02*
X115460000Y-119390000D01*
X130600000Y-71550000D02*
X130600000Y-72900000D01*
X129500000Y-74000000D02*
X125000000Y-74000000D01*
X130600000Y-72900000D02*
X129500000Y-74000000D01*
X127400000Y-81550000D02*
X127400000Y-79900000D01*
X127400000Y-79900000D02*
X125500000Y-78000000D01*
X125500000Y-78000000D02*
X125500000Y-74500000D01*
X125500000Y-74500000D02*
X125000000Y-74000000D01*
X124000000Y-73000000D02*
X121000000Y-73000000D01*
X125000000Y-74000000D02*
X124000000Y-73000000D01*
X130600000Y-86450000D02*
X130600000Y-87600000D01*
X130600000Y-89400000D02*
X130600000Y-91550000D01*
X131000000Y-89000000D02*
X130600000Y-89400000D01*
X131000000Y-88000000D02*
X131000000Y-89000000D01*
X130600000Y-87600000D02*
X131000000Y-88000000D01*
X130600000Y-91550000D02*
X130600000Y-92900000D01*
X127400000Y-99400000D02*
X127400000Y-101550000D01*
X126000000Y-98000000D02*
X127400000Y-99400000D01*
X126000000Y-95000000D02*
X126000000Y-98000000D01*
X127000000Y-94000000D02*
X126000000Y-95000000D01*
X129500000Y-94000000D02*
X127000000Y-94000000D01*
X130600000Y-92900000D02*
X129500000Y-94000000D01*
X130600000Y-101550000D02*
X130600000Y-100400000D01*
X130600000Y-97600000D02*
X130600000Y-96450000D01*
X131000000Y-98000000D02*
X130600000Y-97600000D01*
X131000000Y-100000000D02*
X131000000Y-98000000D01*
X130600000Y-100400000D02*
X131000000Y-100000000D01*
X130600000Y-101550000D02*
X130600000Y-102900000D01*
X126000000Y-110150000D02*
X127400000Y-111550000D01*
X126000000Y-105000000D02*
X126000000Y-110150000D01*
X127000000Y-104000000D02*
X126000000Y-105000000D01*
X129500000Y-104000000D02*
X127000000Y-104000000D01*
X130600000Y-102900000D02*
X129500000Y-104000000D01*
X130600000Y-111550000D02*
X130600000Y-110400000D01*
X130600000Y-108600000D02*
X130600000Y-106450000D01*
X131000000Y-109000000D02*
X130600000Y-108600000D01*
X131000000Y-110000000D02*
X131000000Y-109000000D01*
X130600000Y-110400000D02*
X131000000Y-110000000D01*
X130600000Y-111550000D02*
X130600000Y-112900000D01*
X126000000Y-120150000D02*
X127400000Y-121550000D01*
X126000000Y-115000000D02*
X126000000Y-120150000D01*
X127500000Y-113500000D02*
X126000000Y-115000000D01*
X130000000Y-113500000D02*
X127500000Y-113500000D01*
X130600000Y-112900000D02*
X130000000Y-113500000D01*
X130600000Y-122900000D02*
X131000000Y-123300000D01*
X131000000Y-123300000D02*
X131000000Y-124000000D01*
X98500000Y-128000000D02*
X98600000Y-127900000D01*
X98600000Y-126450000D02*
X98600000Y-127900000D01*
X130600000Y-122900000D02*
X130600000Y-121550000D01*
X130600000Y-116450000D02*
X130600000Y-117600000D01*
X130600000Y-119900000D02*
X130600000Y-121550000D01*
X131000000Y-119500000D02*
X130600000Y-119900000D01*
X131000000Y-118000000D02*
X131000000Y-119500000D01*
X130600000Y-117600000D02*
X131000000Y-118000000D01*
X95400000Y-128490000D02*
X97340000Y-130430000D01*
X95400000Y-126450000D02*
X95400000Y-128490000D01*
X130750000Y-128940000D02*
X130750000Y-126600000D01*
X97340000Y-130430000D02*
X97340000Y-130620000D01*
X130600000Y-126450000D02*
X130750000Y-126600000D01*
X95400000Y-126450000D02*
X95400000Y-125600000D01*
X100000000Y-117850000D02*
X98600000Y-116450000D01*
X100000000Y-123000000D02*
X100000000Y-117850000D01*
X99000000Y-124000000D02*
X100000000Y-123000000D01*
X97000000Y-124000000D02*
X99000000Y-124000000D01*
X95400000Y-125600000D02*
X97000000Y-124000000D01*
X95400000Y-121550000D02*
X95400000Y-119900000D01*
X95400000Y-117600000D02*
X95400000Y-116450000D01*
X95000000Y-118000000D02*
X95400000Y-117600000D01*
X95000000Y-119500000D02*
X95000000Y-118000000D01*
X95400000Y-119900000D02*
X95000000Y-119500000D01*
X95400000Y-116450000D02*
X95400000Y-115600000D01*
X100000000Y-107850000D02*
X98600000Y-106450000D01*
X100000000Y-113500000D02*
X100000000Y-107850000D01*
X99000000Y-114500000D02*
X100000000Y-113500000D01*
X96500000Y-114500000D02*
X99000000Y-114500000D01*
X95400000Y-115600000D02*
X96500000Y-114500000D01*
X95400000Y-111550000D02*
X95400000Y-109900000D01*
X95400000Y-108100000D02*
X95400000Y-106450000D01*
X95000000Y-108500000D02*
X95400000Y-108100000D01*
X95000000Y-109500000D02*
X95000000Y-108500000D01*
X95400000Y-109900000D02*
X95000000Y-109500000D01*
X95400000Y-106450000D02*
X95400000Y-105600000D01*
X98600000Y-98400000D02*
X98600000Y-96450000D01*
X98000000Y-99000000D02*
X98600000Y-98400000D01*
X96500000Y-104500000D02*
X98000000Y-104500000D01*
X95400000Y-105600000D02*
X96500000Y-104500000D01*
X95400000Y-96450000D02*
X95400000Y-95600000D01*
X100000000Y-87850000D02*
X98600000Y-86450000D01*
X100000000Y-93000000D02*
X100000000Y-87850000D01*
X98500000Y-94500000D02*
X100000000Y-93000000D01*
X96500000Y-94500000D02*
X98500000Y-94500000D01*
X95400000Y-95600000D02*
X96500000Y-94500000D01*
X95400000Y-101550000D02*
X95400000Y-100400000D01*
X95400000Y-97600000D02*
X95400000Y-96450000D01*
X95000000Y-98000000D02*
X95400000Y-97600000D01*
X95000000Y-100000000D02*
X95000000Y-98000000D01*
X95400000Y-100400000D02*
X95000000Y-100000000D01*
X95400000Y-86450000D02*
X95400000Y-87600000D01*
X95400000Y-89900000D02*
X95400000Y-91550000D01*
X95000000Y-89500000D02*
X95400000Y-89900000D01*
X95000000Y-88000000D02*
X95000000Y-89500000D01*
X95400000Y-87600000D02*
X95000000Y-88000000D01*
X95400000Y-86450000D02*
X95400000Y-85100000D01*
X100000000Y-77850000D02*
X98600000Y-76450000D01*
X100000000Y-83500000D02*
X100000000Y-77850000D01*
X99000000Y-84500000D02*
X100000000Y-83500000D01*
X96000000Y-84500000D02*
X99000000Y-84500000D01*
X95400000Y-85100000D02*
X96000000Y-84500000D01*
X95400000Y-81550000D02*
X95400000Y-76450000D01*
X105000000Y-71000000D02*
X106840000Y-71000000D01*
X107100000Y-77000000D02*
X105000000Y-77000000D01*
X108160000Y-75940000D02*
X107100000Y-77000000D01*
X108160000Y-72320000D02*
X108160000Y-75940000D01*
X106840000Y-71000000D02*
X108160000Y-72320000D01*
X102000000Y-73050000D02*
X104950000Y-73050000D01*
X104950000Y-73050000D02*
X105000000Y-73000000D01*
X111252000Y-92208000D02*
X110460000Y-93000000D01*
X110460000Y-93000000D02*
X109580000Y-93000000D01*
X111252000Y-92208000D02*
X111252000Y-92075000D01*
X109855000Y-93000000D02*
X110200000Y-93000000D01*
X110200000Y-93000000D02*
X111125000Y-92075000D01*
X109580000Y-93000000D02*
X109855000Y-93000000D01*
X109855000Y-93000000D02*
X109890000Y-93000000D01*
X109890000Y-93000000D02*
X110510000Y-92380000D01*
X101790000Y-80330000D02*
X101790000Y-88950000D01*
X101790000Y-88950000D02*
X105840000Y-93000000D01*
X105840000Y-93000000D02*
X109580000Y-93000000D01*
X102510000Y-79610000D02*
X101790000Y-80330000D01*
X102830000Y-79610000D02*
X102510000Y-79610000D01*
X103000000Y-79000000D02*
X105000000Y-79000000D01*
X111252000Y-89668000D02*
X110460000Y-90460000D01*
X110460000Y-90460000D02*
X109640000Y-90460000D01*
X111252000Y-89668000D02*
X111252000Y-89535000D01*
X109855000Y-90460000D02*
X110200000Y-90460000D01*
X110200000Y-90460000D02*
X111125000Y-89535000D01*
X109640000Y-90460000D02*
X109855000Y-90460000D01*
X109855000Y-90460000D02*
X109890000Y-90460000D01*
X109890000Y-90460000D02*
X110510000Y-89840000D01*
X109640000Y-90460000D02*
X104740000Y-90460000D01*
X104740000Y-90460000D02*
X102690000Y-88410000D01*
X102690000Y-88410000D02*
X102690000Y-85050000D01*
X102690000Y-85050000D02*
X102690000Y-82160000D01*
X102690000Y-82160000D02*
X103850000Y-81000000D01*
X103850000Y-81000000D02*
X105000000Y-81000000D01*
X107735947Y-110564374D02*
X107735947Y-106615947D01*
X103460000Y-83960000D02*
X104420000Y-83000000D01*
X107735947Y-106615947D02*
X106840000Y-105720000D01*
X104420000Y-83000000D02*
X105000000Y-83000000D01*
X105000000Y-83000000D02*
X104470000Y-83000000D01*
X115435626Y-107735947D02*
X115435626Y-104735947D01*
X123190000Y-88370000D02*
X123190000Y-88160000D01*
X115435626Y-104735947D02*
X117900000Y-102271573D01*
X117900000Y-98750000D02*
X117900000Y-102271573D01*
X123440000Y-93210000D02*
X117900000Y-98750000D01*
X123440000Y-88620000D02*
X123440000Y-93210000D01*
X123440000Y-88620000D02*
X123190000Y-88370000D01*
X123630000Y-81000000D02*
X123940000Y-81330000D01*
X123630000Y-81000000D02*
X121000000Y-81000000D01*
X108435626Y-97800000D02*
X108435626Y-95515626D01*
X123610000Y-79770000D02*
X122840000Y-79000000D01*
X122840000Y-79000000D02*
X121000000Y-79000000D01*
X108435626Y-95515626D02*
X107390000Y-94470000D01*
X107840000Y-123000000D02*
X106220000Y-123000000D01*
X102030000Y-107141573D02*
X108435626Y-100735947D01*
X102030000Y-118810000D02*
X102030000Y-107141573D01*
X106220000Y-123000000D02*
X102030000Y-118810000D01*
X108435626Y-97735947D02*
X108435626Y-97800000D01*
X108435626Y-97800000D02*
X108435626Y-100234374D01*
X107840000Y-122160000D02*
X107840000Y-123000000D01*
X124190000Y-98150000D02*
X124190000Y-100470000D01*
X124190000Y-87820000D02*
X123690000Y-87320000D01*
X123690000Y-87320000D02*
X123690000Y-84190000D01*
X123690000Y-84190000D02*
X124110000Y-83770000D01*
X123720000Y-71920000D02*
X122800000Y-71000000D01*
X121000000Y-71000000D02*
X122800000Y-71000000D01*
X112920000Y-120900000D02*
X112920000Y-123000000D01*
X124190000Y-98150000D02*
X124190000Y-89220000D01*
X112920000Y-120900000D02*
X121070000Y-112750000D01*
X124190000Y-89220000D02*
X124190000Y-87820000D01*
X121070000Y-103590000D02*
X121070000Y-112750000D01*
X124190000Y-100470000D02*
X121070000Y-103590000D01*
X107678000Y-118306000D02*
X107678000Y-120298000D01*
X107678000Y-120298000D02*
X110380000Y-123000000D01*
X107678000Y-118306000D02*
X107698000Y-118286000D01*
X105000000Y-117000000D02*
X106412000Y-117000000D01*
X106412000Y-117000000D02*
X107698000Y-118286000D01*
X107700000Y-129300000D02*
X107700000Y-126300000D01*
X107700000Y-126300000D02*
X110380000Y-123620000D01*
X110380000Y-123620000D02*
X110380000Y-123000000D01*
D32*
G36*
X100999309Y-89125000D02*
X101027337Y-89265906D01*
X101206283Y-89533717D01*
X105256283Y-93583717D01*
X105524094Y-93762663D01*
X105840000Y-93825501D01*
X105840005Y-93825500D01*
X106712180Y-93825500D01*
X106597808Y-93939673D01*
X106455162Y-94283201D01*
X106454838Y-94655167D01*
X106596883Y-94998943D01*
X106859673Y-95262192D01*
X107124884Y-95372318D01*
X107610126Y-95857559D01*
X107610126Y-99938722D01*
X106528248Y-101020600D01*
X106393163Y-101218303D01*
X106338679Y-101469465D01*
X106369717Y-101634422D01*
X106218849Y-101785290D01*
X105268675Y-100835116D01*
X105044169Y-100835116D01*
X104443658Y-101435626D01*
X104457801Y-101449769D01*
X104278196Y-101629374D01*
X104264053Y-101615231D01*
X103663543Y-102215742D01*
X103663543Y-102440248D01*
X104613717Y-103390422D01*
X103387835Y-104616304D01*
X103343004Y-104548706D01*
X101150973Y-102356675D01*
X100953270Y-102221590D01*
X100702108Y-102167106D01*
X100449537Y-102214630D01*
X100235355Y-102356675D01*
X99528248Y-103063782D01*
X99393163Y-103261485D01*
X99338679Y-103512647D01*
X99386203Y-103765218D01*
X99528248Y-103979400D01*
X101720279Y-106171431D01*
X101787071Y-106217068D01*
X101446283Y-106557856D01*
X101267337Y-106825667D01*
X101267337Y-106825668D01*
X101204500Y-107141573D01*
X101204500Y-118810000D01*
X101267337Y-119125906D01*
X101446283Y-119393717D01*
X105636283Y-123583717D01*
X105904095Y-123762663D01*
X106220000Y-123825501D01*
X106220005Y-123825500D01*
X106500420Y-123825500D01*
X106780330Y-124244415D01*
X107266511Y-124569271D01*
X107840000Y-124683345D01*
X108226002Y-124606564D01*
X107116283Y-125716283D01*
X106937337Y-125984094D01*
X106897017Y-126186799D01*
X106874500Y-126300000D01*
X106874500Y-128025263D01*
X106502000Y-127915000D01*
X106127000Y-127915000D01*
X106127000Y-129173000D01*
X106147000Y-129173000D01*
X106147000Y-129427000D01*
X106127000Y-129427000D01*
X106127000Y-129447000D01*
X105873000Y-129447000D01*
X105873000Y-129427000D01*
X104405344Y-129427000D01*
X104282682Y-129641185D01*
X104296827Y-129712684D01*
X104555855Y-130189540D01*
X104977651Y-130530972D01*
X105281155Y-130620812D01*
X104871170Y-130741311D01*
X104439641Y-131089246D01*
X104174109Y-131575835D01*
X104157929Y-131654102D01*
X104280186Y-131873000D01*
X106373000Y-131873000D01*
X106373000Y-131853000D01*
X106627000Y-131853000D01*
X106627000Y-131873000D01*
X108719814Y-131873000D01*
X108842071Y-131654102D01*
X108825891Y-131575835D01*
X108560359Y-131089246D01*
X108128830Y-130741311D01*
X107724385Y-130622440D01*
X107895000Y-130622440D01*
X108029772Y-130597081D01*
X108155000Y-130622440D01*
X108545000Y-130622440D01*
X108679772Y-130597081D01*
X108805000Y-130622440D01*
X109195000Y-130622440D01*
X109329772Y-130597081D01*
X109455000Y-130622440D01*
X109845000Y-130622440D01*
X109957582Y-130601256D01*
X109978691Y-130610000D01*
X110043750Y-130610000D01*
X110074492Y-130579258D01*
X110080317Y-130578162D01*
X110296441Y-130439090D01*
X110397500Y-130291185D01*
X110397500Y-130451250D01*
X110531250Y-130585000D01*
X110403000Y-130585000D01*
X109871170Y-130741311D01*
X109439641Y-131089246D01*
X109174109Y-131575835D01*
X109157929Y-131654102D01*
X109280186Y-131873000D01*
X111373000Y-131873000D01*
X111373000Y-131853000D01*
X111627000Y-131853000D01*
X111627000Y-131873000D01*
X113719814Y-131873000D01*
X113842071Y-131654102D01*
X113825891Y-131575835D01*
X113560359Y-131089246D01*
X113128830Y-130741311D01*
X112718845Y-130620812D01*
X113022349Y-130530972D01*
X113444145Y-130189540D01*
X113703173Y-129712684D01*
X113717318Y-129641185D01*
X113594656Y-129427000D01*
X112127000Y-129427000D01*
X112127000Y-129447000D01*
X111873000Y-129447000D01*
X111873000Y-129427000D01*
X111853000Y-129427000D01*
X111853000Y-129173000D01*
X111873000Y-129173000D01*
X111873000Y-127915000D01*
X112127000Y-127915000D01*
X112127000Y-129173000D01*
X113594656Y-129173000D01*
X113717318Y-128958815D01*
X113703173Y-128887316D01*
X113444145Y-128410460D01*
X113022349Y-128069028D01*
X112502000Y-127915000D01*
X112127000Y-127915000D01*
X111873000Y-127915000D01*
X111498000Y-127915000D01*
X110977651Y-128069028D01*
X110899950Y-128131925D01*
X110854698Y-128086673D01*
X110621309Y-127990000D01*
X110556250Y-127990000D01*
X110397500Y-128148750D01*
X110397500Y-128310952D01*
X110309090Y-128173559D01*
X110096890Y-128028569D01*
X110078619Y-128024869D01*
X110043750Y-127990000D01*
X109978691Y-127990000D01*
X109954964Y-127999828D01*
X109845000Y-127977560D01*
X109455000Y-127977560D01*
X109320228Y-128002919D01*
X109195000Y-127977560D01*
X108805000Y-127977560D01*
X108670228Y-128002919D01*
X108545000Y-127977560D01*
X108525500Y-127977560D01*
X108525500Y-126641934D01*
X110509934Y-124657500D01*
X110953489Y-124569271D01*
X111439670Y-124244415D01*
X111650000Y-123929634D01*
X111860330Y-124244415D01*
X112346511Y-124569271D01*
X112920000Y-124683345D01*
X113493489Y-124569271D01*
X113979670Y-124244415D01*
X114190000Y-123929634D01*
X114400330Y-124244415D01*
X114886511Y-124569271D01*
X115460000Y-124683345D01*
X116033489Y-124569271D01*
X116519670Y-124244415D01*
X116534500Y-124222220D01*
X116598073Y-124375698D01*
X116776701Y-124554327D01*
X117010090Y-124651000D01*
X117714250Y-124651000D01*
X117873000Y-124492250D01*
X117873000Y-123127000D01*
X118127000Y-123127000D01*
X118127000Y-124492250D01*
X118285750Y-124651000D01*
X118989910Y-124651000D01*
X119223299Y-124554327D01*
X119401927Y-124375698D01*
X119498600Y-124142309D01*
X119498600Y-123285750D01*
X119339850Y-123127000D01*
X118127000Y-123127000D01*
X117873000Y-123127000D01*
X117853000Y-123127000D01*
X117853000Y-122873000D01*
X117873000Y-122873000D01*
X117873000Y-121507750D01*
X118127000Y-121507750D01*
X118127000Y-122873000D01*
X119339850Y-122873000D01*
X119498600Y-122714250D01*
X119498600Y-121857691D01*
X119401927Y-121624302D01*
X119223299Y-121445673D01*
X118989910Y-121349000D01*
X118285750Y-121349000D01*
X118127000Y-121507750D01*
X117873000Y-121507750D01*
X117714250Y-121349000D01*
X117010090Y-121349000D01*
X116776701Y-121445673D01*
X116598073Y-121624302D01*
X116534500Y-121777780D01*
X116519670Y-121755585D01*
X116285500Y-121599117D01*
X116285500Y-119731934D01*
X122258714Y-113758719D01*
X122258717Y-113758717D01*
X122280097Y-113737337D01*
X122353714Y-113663719D01*
X122353717Y-113663717D01*
X122463109Y-113500000D01*
X122532663Y-113395906D01*
X122595500Y-113080000D01*
X122595500Y-105385235D01*
X122755106Y-105544842D01*
X122817290Y-105607026D01*
X123041796Y-105607026D01*
X124384769Y-104264053D01*
X123784258Y-103663543D01*
X123559752Y-103663543D01*
X122595500Y-104627794D01*
X122595500Y-104351934D01*
X123688002Y-103259431D01*
X123963864Y-103259431D01*
X123963864Y-103483937D01*
X124564374Y-104084448D01*
X125907347Y-102741475D01*
X125907347Y-102516969D01*
X125845163Y-102454785D01*
X125666534Y-102276157D01*
X125433145Y-102179484D01*
X125180526Y-102179485D01*
X124947137Y-102276157D01*
X123963864Y-103259431D01*
X123688002Y-103259431D01*
X125503714Y-101443719D01*
X125503717Y-101443717D01*
X125682663Y-101175905D01*
X125706968Y-101053717D01*
X125745501Y-100860000D01*
X125745500Y-100859995D01*
X125745500Y-98912934D01*
X126574500Y-99741934D01*
X126574500Y-100254869D01*
X126448559Y-100335910D01*
X126303569Y-100548110D01*
X126252560Y-100800000D01*
X126252560Y-102300000D01*
X126296838Y-102535317D01*
X126435910Y-102751441D01*
X126648110Y-102896431D01*
X126900000Y-102947440D01*
X127900000Y-102947440D01*
X128135317Y-102903162D01*
X128198567Y-102862462D01*
X128373690Y-102935000D01*
X128714250Y-102935000D01*
X128873000Y-102776250D01*
X128873000Y-101677000D01*
X128853000Y-101677000D01*
X128853000Y-101423000D01*
X128873000Y-101423000D01*
X128873000Y-100323750D01*
X128714250Y-100165000D01*
X128373690Y-100165000D01*
X128225500Y-100226382D01*
X128225500Y-99400005D01*
X128225501Y-99400000D01*
X128162663Y-99084094D01*
X127983717Y-98816283D01*
X127014874Y-97847440D01*
X127900000Y-97847440D01*
X128135317Y-97803162D01*
X128172728Y-97779088D01*
X128198110Y-97796431D01*
X128450000Y-97847440D01*
X129450000Y-97847440D01*
X129685317Y-97803162D01*
X129774228Y-97745949D01*
X129808140Y-97769121D01*
X129837337Y-97915906D01*
X130016283Y-98183717D01*
X130174500Y-98341934D01*
X130174500Y-99658066D01*
X130016283Y-99816283D01*
X129837337Y-100084094D01*
X129821709Y-100162663D01*
X129807605Y-100233566D01*
X129801433Y-100237538D01*
X129626310Y-100165000D01*
X129285750Y-100165000D01*
X129127000Y-100323750D01*
X129127000Y-101423000D01*
X129147000Y-101423000D01*
X129147000Y-101677000D01*
X129127000Y-101677000D01*
X129127000Y-102776250D01*
X129285750Y-102935000D01*
X129397566Y-102935000D01*
X129158066Y-103174500D01*
X127000005Y-103174500D01*
X127000000Y-103174499D01*
X126684095Y-103237337D01*
X126605322Y-103289971D01*
X126552270Y-103161893D01*
X126373642Y-102983264D01*
X126311458Y-102921080D01*
X126086952Y-102921080D01*
X124743979Y-104264053D01*
X124758122Y-104278195D01*
X124578516Y-104457801D01*
X124564374Y-104443658D01*
X123221401Y-105786631D01*
X123221401Y-106011137D01*
X123283585Y-106073321D01*
X123462214Y-106251949D01*
X123695603Y-106348622D01*
X123948222Y-106348621D01*
X124181611Y-106251949D01*
X125164884Y-105268675D01*
X125164884Y-105044171D01*
X125174500Y-105053787D01*
X125174500Y-110150000D01*
X125237337Y-110465906D01*
X125416283Y-110733717D01*
X126252560Y-111569994D01*
X126252560Y-112300000D01*
X126296838Y-112535317D01*
X126435910Y-112751441D01*
X126648110Y-112896431D01*
X126887632Y-112944935D01*
X125416283Y-114416283D01*
X125237337Y-114684094D01*
X125211118Y-114815906D01*
X125174500Y-115000000D01*
X125174500Y-120150000D01*
X125237337Y-120465906D01*
X125416283Y-120733717D01*
X126252560Y-121569994D01*
X126252560Y-122300000D01*
X126296838Y-122535317D01*
X126435910Y-122751441D01*
X126648110Y-122896431D01*
X126900000Y-122947440D01*
X127900000Y-122947440D01*
X128135317Y-122903162D01*
X128198567Y-122862462D01*
X128373690Y-122935000D01*
X128714250Y-122935000D01*
X128873000Y-122776250D01*
X128873000Y-121677000D01*
X128853000Y-121677000D01*
X128853000Y-121423000D01*
X128873000Y-121423000D01*
X128873000Y-120323750D01*
X128714250Y-120165000D01*
X128373690Y-120165000D01*
X128200459Y-120236755D01*
X128151890Y-120203569D01*
X127900000Y-120152560D01*
X127169994Y-120152560D01*
X126825500Y-119808066D01*
X126825500Y-117832353D01*
X126900000Y-117847440D01*
X127900000Y-117847440D01*
X128135317Y-117803162D01*
X128172728Y-117779088D01*
X128198110Y-117796431D01*
X128450000Y-117847440D01*
X129450000Y-117847440D01*
X129685317Y-117803162D01*
X129774228Y-117745949D01*
X129808140Y-117769121D01*
X129837337Y-117915906D01*
X130016283Y-118183717D01*
X130174500Y-118341934D01*
X130174500Y-119158066D01*
X130016283Y-119316283D01*
X129837337Y-119584094D01*
X129837337Y-119584095D01*
X129774500Y-119900000D01*
X129774500Y-120226382D01*
X129626310Y-120165000D01*
X129285750Y-120165000D01*
X129127000Y-120323750D01*
X129127000Y-121423000D01*
X129147000Y-121423000D01*
X129147000Y-121677000D01*
X129127000Y-121677000D01*
X129127000Y-122776250D01*
X129285750Y-122935000D01*
X129626310Y-122935000D01*
X129774500Y-122873618D01*
X129774500Y-122900000D01*
X129837337Y-123215906D01*
X130016283Y-123483717D01*
X130147493Y-123614927D01*
X130065162Y-123813201D01*
X130064838Y-124185167D01*
X130206883Y-124528943D01*
X130469673Y-124792192D01*
X130813201Y-124934838D01*
X131185167Y-124935162D01*
X131290000Y-124891846D01*
X131290000Y-125091036D01*
X131100000Y-125052560D01*
X130100000Y-125052560D01*
X129934928Y-125083620D01*
X129935162Y-124814833D01*
X129793117Y-124471057D01*
X129530327Y-124207808D01*
X129186799Y-124065162D01*
X128814833Y-124064838D01*
X128471057Y-124206883D01*
X128207808Y-124469673D01*
X128065162Y-124813201D01*
X128064924Y-125085958D01*
X127900000Y-125052560D01*
X126900000Y-125052560D01*
X126664683Y-125096838D01*
X126448559Y-125235910D01*
X126303569Y-125448110D01*
X126252560Y-125700000D01*
X126252560Y-127200000D01*
X126296838Y-127435317D01*
X126435910Y-127651441D01*
X126648110Y-127796431D01*
X126900000Y-127847440D01*
X127900000Y-127847440D01*
X128135317Y-127803162D01*
X128172728Y-127779088D01*
X128198110Y-127796431D01*
X128450000Y-127847440D01*
X129450000Y-127847440D01*
X129685317Y-127803162D01*
X129774228Y-127745949D01*
X129848110Y-127796431D01*
X129924500Y-127811900D01*
X129924500Y-128489887D01*
X129815162Y-128753201D01*
X129814838Y-129125167D01*
X129956883Y-129468943D01*
X130219673Y-129732192D01*
X130563201Y-129874838D01*
X130935167Y-129875162D01*
X131278943Y-129733117D01*
X131290000Y-129722079D01*
X131290000Y-130757567D01*
X130758717Y-130226283D01*
X130490906Y-130047337D01*
X130175000Y-129984500D01*
X129859094Y-130047337D01*
X129591283Y-130226283D01*
X129412337Y-130494094D01*
X129387293Y-130620000D01*
X129381106Y-130651105D01*
X129224095Y-130682337D01*
X128956283Y-130861283D01*
X128956281Y-130861286D01*
X128321283Y-131496283D01*
X128142337Y-131764094D01*
X128104894Y-131952337D01*
X128079500Y-132080000D01*
X128079500Y-132715000D01*
X128142337Y-133030905D01*
X128315458Y-133290000D01*
X123356699Y-133290000D01*
X123446371Y-133200485D01*
X123634785Y-132746734D01*
X123635214Y-132255421D01*
X123447592Y-131801343D01*
X123100485Y-131453629D01*
X122651742Y-131267295D01*
X122696431Y-131201890D01*
X122747440Y-130950000D01*
X122747440Y-130457745D01*
X123171861Y-130457745D01*
X123245995Y-130703864D01*
X123783223Y-130896965D01*
X124353454Y-130869778D01*
X124754005Y-130703864D01*
X124828139Y-130457745D01*
X124000000Y-129629605D01*
X123171861Y-130457745D01*
X122747440Y-130457745D01*
X122747440Y-130204398D01*
X122992255Y-130278139D01*
X123820395Y-129450000D01*
X124179605Y-129450000D01*
X125007745Y-130278139D01*
X125253864Y-130204005D01*
X125446965Y-129666777D01*
X125419778Y-129096546D01*
X125253864Y-128695995D01*
X125007745Y-128621861D01*
X124179605Y-129450000D01*
X123820395Y-129450000D01*
X122992255Y-128621861D01*
X122747440Y-128695602D01*
X122747440Y-128450000D01*
X122745983Y-128442255D01*
X123171861Y-128442255D01*
X124000000Y-129270395D01*
X124828139Y-128442255D01*
X124754005Y-128196136D01*
X124216777Y-128003035D01*
X123646546Y-128030222D01*
X123245995Y-128196136D01*
X123171861Y-128442255D01*
X122745983Y-128442255D01*
X122703162Y-128214683D01*
X122564090Y-127998559D01*
X122351890Y-127853569D01*
X122100000Y-127802560D01*
X120900000Y-127802560D01*
X120825500Y-127816578D01*
X120825500Y-127450113D01*
X120934838Y-127186799D01*
X120935162Y-126814833D01*
X120793117Y-126471057D01*
X120530327Y-126207808D01*
X120186799Y-126065162D01*
X119934944Y-126064943D01*
X119935162Y-125814833D01*
X119793117Y-125471057D01*
X119530327Y-125207808D01*
X119186799Y-125065162D01*
X118814833Y-125064838D01*
X118471057Y-125206883D01*
X118207808Y-125469673D01*
X118065162Y-125813201D01*
X118064838Y-126185167D01*
X118174500Y-126450570D01*
X118174500Y-127844991D01*
X118164683Y-127846838D01*
X117948559Y-127985910D01*
X117803569Y-128198110D01*
X117752560Y-128450000D01*
X117752560Y-130950000D01*
X117796838Y-131185317D01*
X117935910Y-131401441D01*
X118148110Y-131546431D01*
X118400000Y-131597440D01*
X119600000Y-131597440D01*
X119835317Y-131553162D01*
X120051441Y-131414090D01*
X120196431Y-131201890D01*
X120247440Y-130950000D01*
X120247440Y-128919993D01*
X120252560Y-128914873D01*
X120252560Y-130950000D01*
X120296838Y-131185317D01*
X120435910Y-131401441D01*
X120648110Y-131546431D01*
X120900000Y-131597440D01*
X121556057Y-131597440D01*
X121353629Y-131799515D01*
X121165215Y-132253266D01*
X121164786Y-132744579D01*
X121352408Y-133198657D01*
X121443592Y-133290000D01*
X116556699Y-133290000D01*
X116646371Y-133200485D01*
X116834785Y-132746734D01*
X116835214Y-132255421D01*
X116647592Y-131801343D01*
X116444045Y-131597440D01*
X117100000Y-131597440D01*
X117335317Y-131553162D01*
X117551441Y-131414090D01*
X117696431Y-131201890D01*
X117747440Y-130950000D01*
X117747440Y-128450000D01*
X117703162Y-128214683D01*
X117564090Y-127998559D01*
X117351890Y-127853569D01*
X117100000Y-127802560D01*
X115900000Y-127802560D01*
X115664683Y-127846838D01*
X115448559Y-127985910D01*
X115348524Y-128132316D01*
X115186799Y-128065162D01*
X114814833Y-128064838D01*
X114471057Y-128206883D01*
X114207808Y-128469673D01*
X114065162Y-128813201D01*
X114064838Y-129185167D01*
X114195069Y-129500351D01*
X114065162Y-129813201D01*
X114064838Y-130185167D01*
X114206883Y-130528943D01*
X114469673Y-130792192D01*
X114813201Y-130934838D01*
X115185167Y-130935162D01*
X115252560Y-130907316D01*
X115252560Y-130950000D01*
X115296838Y-131185317D01*
X115349539Y-131267216D01*
X114901343Y-131452408D01*
X114553629Y-131799515D01*
X114365215Y-132253266D01*
X114364786Y-132744579D01*
X114552408Y-133198657D01*
X114643592Y-133290000D01*
X113022298Y-133290000D01*
X113128830Y-133258689D01*
X113560359Y-132910754D01*
X113825891Y-132424165D01*
X113842071Y-132345898D01*
X113719814Y-132127000D01*
X111627000Y-132127000D01*
X111627000Y-132147000D01*
X111373000Y-132147000D01*
X111373000Y-132127000D01*
X109280186Y-132127000D01*
X109157929Y-132345898D01*
X109174109Y-132424165D01*
X109439641Y-132910754D01*
X109871170Y-133258689D01*
X109977702Y-133290000D01*
X108022298Y-133290000D01*
X108128830Y-133258689D01*
X108560359Y-132910754D01*
X108825891Y-132424165D01*
X108842071Y-132345898D01*
X108719814Y-132127000D01*
X106627000Y-132127000D01*
X106627000Y-132147000D01*
X106373000Y-132147000D01*
X106373000Y-132127000D01*
X104280186Y-132127000D01*
X104157929Y-132345898D01*
X104174109Y-132424165D01*
X104439641Y-132910754D01*
X104871170Y-133258689D01*
X104977702Y-133290000D01*
X94710000Y-133290000D01*
X94710000Y-128914654D01*
X94816283Y-129073717D01*
X96404962Y-130662396D01*
X96404838Y-130805167D01*
X96546883Y-131148943D01*
X96809673Y-131412192D01*
X97153201Y-131554838D01*
X97525167Y-131555162D01*
X97868943Y-131413117D01*
X98132192Y-131150327D01*
X98274838Y-130806799D01*
X98275162Y-130434833D01*
X98133117Y-130091057D01*
X97994461Y-129952158D01*
X97923717Y-129846283D01*
X97923714Y-129846281D01*
X97911621Y-129834187D01*
X100564752Y-129834187D01*
X100782757Y-130361800D01*
X101186077Y-130765824D01*
X101713309Y-130984750D01*
X102284187Y-130985248D01*
X102811800Y-130767243D01*
X103215824Y-130363923D01*
X103434750Y-129836691D01*
X103435248Y-129265813D01*
X103308400Y-128958815D01*
X104282682Y-128958815D01*
X104405344Y-129173000D01*
X105873000Y-129173000D01*
X105873000Y-127915000D01*
X105498000Y-127915000D01*
X104977651Y-128069028D01*
X104555855Y-128410460D01*
X104296827Y-128887316D01*
X104282682Y-128958815D01*
X103308400Y-128958815D01*
X103217243Y-128738200D01*
X102813923Y-128334176D01*
X102286691Y-128115250D01*
X101715813Y-128114752D01*
X101188200Y-128332757D01*
X100784176Y-128736077D01*
X100565250Y-129263309D01*
X100564752Y-129834187D01*
X97911621Y-129834187D01*
X96225500Y-128148066D01*
X96225500Y-127773618D01*
X96373690Y-127835000D01*
X96714250Y-127835000D01*
X96873000Y-127676250D01*
X96873000Y-126577000D01*
X96853000Y-126577000D01*
X96853000Y-126323000D01*
X96873000Y-126323000D01*
X96873000Y-126303000D01*
X97127000Y-126303000D01*
X97127000Y-126323000D01*
X97147000Y-126323000D01*
X97147000Y-126577000D01*
X97127000Y-126577000D01*
X97127000Y-127676250D01*
X97285750Y-127835000D01*
X97565143Y-127835000D01*
X97564838Y-128185167D01*
X97706883Y-128528943D01*
X97969673Y-128792192D01*
X98313201Y-128934838D01*
X98685167Y-128935162D01*
X99028943Y-128793117D01*
X99292192Y-128530327D01*
X99434838Y-128186799D01*
X99435162Y-127814833D01*
X99425500Y-127791449D01*
X99425500Y-127745131D01*
X99551441Y-127664090D01*
X99696431Y-127451890D01*
X99747440Y-127200000D01*
X99747440Y-125700000D01*
X99703162Y-125464683D01*
X99564090Y-125248559D01*
X99351890Y-125103569D01*
X99100000Y-125052560D01*
X98100000Y-125052560D01*
X97864683Y-125096838D01*
X97801433Y-125137538D01*
X97626310Y-125065000D01*
X97285750Y-125065000D01*
X97127002Y-125223748D01*
X97127002Y-125065000D01*
X97102433Y-125065000D01*
X97341933Y-124825500D01*
X99000000Y-124825500D01*
X99315906Y-124762663D01*
X99583717Y-124583717D01*
X100583714Y-123583719D01*
X100583717Y-123583717D01*
X100762663Y-123315905D01*
X100788344Y-123186799D01*
X100825501Y-123000000D01*
X100825500Y-122999995D01*
X100825500Y-117850005D01*
X100825501Y-117850000D01*
X100762663Y-117534094D01*
X100583717Y-117266283D01*
X99747440Y-116430006D01*
X99747440Y-115700000D01*
X99703162Y-115464683D01*
X99564090Y-115248559D01*
X99451820Y-115171848D01*
X99583717Y-115083717D01*
X100583714Y-114083719D01*
X100583717Y-114083717D01*
X100762663Y-113815905D01*
X100770700Y-113775500D01*
X100825501Y-113500000D01*
X100825500Y-113499995D01*
X100825500Y-107850005D01*
X100825501Y-107850000D01*
X100762663Y-107534094D01*
X100583717Y-107266283D01*
X99747440Y-106430006D01*
X99747440Y-105700000D01*
X99703162Y-105464683D01*
X99564090Y-105248559D01*
X99351890Y-105103569D01*
X99100000Y-105052560D01*
X98769920Y-105052560D01*
X98792192Y-105030327D01*
X98934838Y-104686799D01*
X98935162Y-104314833D01*
X98793117Y-103971057D01*
X98530327Y-103707808D01*
X98186799Y-103565162D01*
X97814833Y-103564838D01*
X97717216Y-103605173D01*
X97792192Y-103530327D01*
X97934838Y-103186799D01*
X97935076Y-102914042D01*
X98100000Y-102947440D01*
X99100000Y-102947440D01*
X99335317Y-102903162D01*
X99551441Y-102764090D01*
X99696431Y-102551890D01*
X99747440Y-102300000D01*
X99747440Y-100800000D01*
X99703571Y-100566855D01*
X102179484Y-100566855D01*
X102179485Y-100819474D01*
X102276157Y-101052863D01*
X103259431Y-102036136D01*
X103483937Y-102036136D01*
X104084448Y-101435626D01*
X102741475Y-100092653D01*
X102516969Y-100092653D01*
X102454785Y-100154837D01*
X102276157Y-100333466D01*
X102179484Y-100566855D01*
X99703571Y-100566855D01*
X99703162Y-100564683D01*
X99564090Y-100348559D01*
X99351890Y-100203569D01*
X99100000Y-100152560D01*
X98100000Y-100152560D01*
X97864683Y-100196838D01*
X97827272Y-100220912D01*
X97801890Y-100203569D01*
X97550000Y-100152560D01*
X96550000Y-100152560D01*
X96314683Y-100196838D01*
X96225772Y-100254051D01*
X96191860Y-100230879D01*
X96162663Y-100084095D01*
X95983717Y-99816283D01*
X95983714Y-99816281D01*
X95825500Y-99658067D01*
X95825500Y-98341933D01*
X95983714Y-98183719D01*
X95983717Y-98183717D01*
X96162663Y-97915905D01*
X96192395Y-97766434D01*
X96198567Y-97762462D01*
X96373690Y-97835000D01*
X96714250Y-97835000D01*
X96873000Y-97676250D01*
X96873000Y-96577000D01*
X96853000Y-96577000D01*
X96853000Y-96323000D01*
X96873000Y-96323000D01*
X96873000Y-96303000D01*
X97127000Y-96303000D01*
X97127000Y-96323000D01*
X97147000Y-96323000D01*
X97147000Y-96577000D01*
X97127000Y-96577000D01*
X97127000Y-97676250D01*
X97285750Y-97835000D01*
X97626310Y-97835000D01*
X97774500Y-97773618D01*
X97774500Y-98058066D01*
X97734560Y-98098006D01*
X97471057Y-98206883D01*
X97207808Y-98469673D01*
X97065162Y-98813201D01*
X97064838Y-99185167D01*
X97206883Y-99528943D01*
X97469673Y-99792192D01*
X97813201Y-99934838D01*
X98185167Y-99935162D01*
X98528943Y-99793117D01*
X98633700Y-99688542D01*
X102921080Y-99688542D01*
X102921080Y-99913048D01*
X104264053Y-101256021D01*
X104864563Y-100655510D01*
X104864563Y-100431004D01*
X103881290Y-99447730D01*
X103647901Y-99351058D01*
X103395282Y-99351057D01*
X103161893Y-99447730D01*
X102983264Y-99626358D01*
X102921080Y-99688542D01*
X98633700Y-99688542D01*
X98792192Y-99530327D01*
X98902318Y-99265116D01*
X99183717Y-98983717D01*
X99362663Y-98715906D01*
X99425500Y-98400000D01*
X99425500Y-97745131D01*
X99551441Y-97664090D01*
X99696431Y-97451890D01*
X99747440Y-97200000D01*
X99747440Y-95700000D01*
X99703162Y-95464683D01*
X99564090Y-95248559D01*
X99351890Y-95103569D01*
X99112369Y-95055065D01*
X100583714Y-93583719D01*
X100583717Y-93583717D01*
X100715891Y-93385905D01*
X100762663Y-93315906D01*
X100825500Y-93000000D01*
X100825500Y-89124849D01*
X100999309Y-89125000D01*
X100999309Y-89125000D01*
G37*
X100999309Y-89125000D02*
X101027337Y-89265906D01*
X101206283Y-89533717D01*
X105256283Y-93583717D01*
X105524094Y-93762663D01*
X105840000Y-93825501D01*
X105840005Y-93825500D01*
X106712180Y-93825500D01*
X106597808Y-93939673D01*
X106455162Y-94283201D01*
X106454838Y-94655167D01*
X106596883Y-94998943D01*
X106859673Y-95262192D01*
X107124884Y-95372318D01*
X107610126Y-95857559D01*
X107610126Y-99938722D01*
X106528248Y-101020600D01*
X106393163Y-101218303D01*
X106338679Y-101469465D01*
X106369717Y-101634422D01*
X106218849Y-101785290D01*
X105268675Y-100835116D01*
X105044169Y-100835116D01*
X104443658Y-101435626D01*
X104457801Y-101449769D01*
X104278196Y-101629374D01*
X104264053Y-101615231D01*
X103663543Y-102215742D01*
X103663543Y-102440248D01*
X104613717Y-103390422D01*
X103387835Y-104616304D01*
X103343004Y-104548706D01*
X101150973Y-102356675D01*
X100953270Y-102221590D01*
X100702108Y-102167106D01*
X100449537Y-102214630D01*
X100235355Y-102356675D01*
X99528248Y-103063782D01*
X99393163Y-103261485D01*
X99338679Y-103512647D01*
X99386203Y-103765218D01*
X99528248Y-103979400D01*
X101720279Y-106171431D01*
X101787071Y-106217068D01*
X101446283Y-106557856D01*
X101267337Y-106825667D01*
X101267337Y-106825668D01*
X101204500Y-107141573D01*
X101204500Y-118810000D01*
X101267337Y-119125906D01*
X101446283Y-119393717D01*
X105636283Y-123583717D01*
X105904095Y-123762663D01*
X106220000Y-123825501D01*
X106220005Y-123825500D01*
X106500420Y-123825500D01*
X106780330Y-124244415D01*
X107266511Y-124569271D01*
X107840000Y-124683345D01*
X108226002Y-124606564D01*
X107116283Y-125716283D01*
X106937337Y-125984094D01*
X106897017Y-126186799D01*
X106874500Y-126300000D01*
X106874500Y-128025263D01*
X106502000Y-127915000D01*
X106127000Y-127915000D01*
X106127000Y-129173000D01*
X106147000Y-129173000D01*
X106147000Y-129427000D01*
X106127000Y-129427000D01*
X106127000Y-129447000D01*
X105873000Y-129447000D01*
X105873000Y-129427000D01*
X104405344Y-129427000D01*
X104282682Y-129641185D01*
X104296827Y-129712684D01*
X104555855Y-130189540D01*
X104977651Y-130530972D01*
X105281155Y-130620812D01*
X104871170Y-130741311D01*
X104439641Y-131089246D01*
X104174109Y-131575835D01*
X104157929Y-131654102D01*
X104280186Y-131873000D01*
X106373000Y-131873000D01*
X106373000Y-131853000D01*
X106627000Y-131853000D01*
X106627000Y-131873000D01*
X108719814Y-131873000D01*
X108842071Y-131654102D01*
X108825891Y-131575835D01*
X108560359Y-131089246D01*
X108128830Y-130741311D01*
X107724385Y-130622440D01*
X107895000Y-130622440D01*
X108029772Y-130597081D01*
X108155000Y-130622440D01*
X108545000Y-130622440D01*
X108679772Y-130597081D01*
X108805000Y-130622440D01*
X109195000Y-130622440D01*
X109329772Y-130597081D01*
X109455000Y-130622440D01*
X109845000Y-130622440D01*
X109957582Y-130601256D01*
X109978691Y-130610000D01*
X110043750Y-130610000D01*
X110074492Y-130579258D01*
X110080317Y-130578162D01*
X110296441Y-130439090D01*
X110397500Y-130291185D01*
X110397500Y-130451250D01*
X110531250Y-130585000D01*
X110403000Y-130585000D01*
X109871170Y-130741311D01*
X109439641Y-131089246D01*
X109174109Y-131575835D01*
X109157929Y-131654102D01*
X109280186Y-131873000D01*
X111373000Y-131873000D01*
X111373000Y-131853000D01*
X111627000Y-131853000D01*
X111627000Y-131873000D01*
X113719814Y-131873000D01*
X113842071Y-131654102D01*
X113825891Y-131575835D01*
X113560359Y-131089246D01*
X113128830Y-130741311D01*
X112718845Y-130620812D01*
X113022349Y-130530972D01*
X113444145Y-130189540D01*
X113703173Y-129712684D01*
X113717318Y-129641185D01*
X113594656Y-129427000D01*
X112127000Y-129427000D01*
X112127000Y-129447000D01*
X111873000Y-129447000D01*
X111873000Y-129427000D01*
X111853000Y-129427000D01*
X111853000Y-129173000D01*
X111873000Y-129173000D01*
X111873000Y-127915000D01*
X112127000Y-127915000D01*
X112127000Y-129173000D01*
X113594656Y-129173000D01*
X113717318Y-128958815D01*
X113703173Y-128887316D01*
X113444145Y-128410460D01*
X113022349Y-128069028D01*
X112502000Y-127915000D01*
X112127000Y-127915000D01*
X111873000Y-127915000D01*
X111498000Y-127915000D01*
X110977651Y-128069028D01*
X110899950Y-128131925D01*
X110854698Y-128086673D01*
X110621309Y-127990000D01*
X110556250Y-127990000D01*
X110397500Y-128148750D01*
X110397500Y-128310952D01*
X110309090Y-128173559D01*
X110096890Y-128028569D01*
X110078619Y-128024869D01*
X110043750Y-127990000D01*
X109978691Y-127990000D01*
X109954964Y-127999828D01*
X109845000Y-127977560D01*
X109455000Y-127977560D01*
X109320228Y-128002919D01*
X109195000Y-127977560D01*
X108805000Y-127977560D01*
X108670228Y-128002919D01*
X108545000Y-127977560D01*
X108525500Y-127977560D01*
X108525500Y-126641934D01*
X110509934Y-124657500D01*
X110953489Y-124569271D01*
X111439670Y-124244415D01*
X111650000Y-123929634D01*
X111860330Y-124244415D01*
X112346511Y-124569271D01*
X112920000Y-124683345D01*
X113493489Y-124569271D01*
X113979670Y-124244415D01*
X114190000Y-123929634D01*
X114400330Y-124244415D01*
X114886511Y-124569271D01*
X115460000Y-124683345D01*
X116033489Y-124569271D01*
X116519670Y-124244415D01*
X116534500Y-124222220D01*
X116598073Y-124375698D01*
X116776701Y-124554327D01*
X117010090Y-124651000D01*
X117714250Y-124651000D01*
X117873000Y-124492250D01*
X117873000Y-123127000D01*
X118127000Y-123127000D01*
X118127000Y-124492250D01*
X118285750Y-124651000D01*
X118989910Y-124651000D01*
X119223299Y-124554327D01*
X119401927Y-124375698D01*
X119498600Y-124142309D01*
X119498600Y-123285750D01*
X119339850Y-123127000D01*
X118127000Y-123127000D01*
X117873000Y-123127000D01*
X117853000Y-123127000D01*
X117853000Y-122873000D01*
X117873000Y-122873000D01*
X117873000Y-121507750D01*
X118127000Y-121507750D01*
X118127000Y-122873000D01*
X119339850Y-122873000D01*
X119498600Y-122714250D01*
X119498600Y-121857691D01*
X119401927Y-121624302D01*
X119223299Y-121445673D01*
X118989910Y-121349000D01*
X118285750Y-121349000D01*
X118127000Y-121507750D01*
X117873000Y-121507750D01*
X117714250Y-121349000D01*
X117010090Y-121349000D01*
X116776701Y-121445673D01*
X116598073Y-121624302D01*
X116534500Y-121777780D01*
X116519670Y-121755585D01*
X116285500Y-121599117D01*
X116285500Y-119731934D01*
X122258714Y-113758719D01*
X122258717Y-113758717D01*
X122280097Y-113737337D01*
X122353714Y-113663719D01*
X122353717Y-113663717D01*
X122463109Y-113500000D01*
X122532663Y-113395906D01*
X122595500Y-113080000D01*
X122595500Y-105385235D01*
X122755106Y-105544842D01*
X122817290Y-105607026D01*
X123041796Y-105607026D01*
X124384769Y-104264053D01*
X123784258Y-103663543D01*
X123559752Y-103663543D01*
X122595500Y-104627794D01*
X122595500Y-104351934D01*
X123688002Y-103259431D01*
X123963864Y-103259431D01*
X123963864Y-103483937D01*
X124564374Y-104084448D01*
X125907347Y-102741475D01*
X125907347Y-102516969D01*
X125845163Y-102454785D01*
X125666534Y-102276157D01*
X125433145Y-102179484D01*
X125180526Y-102179485D01*
X124947137Y-102276157D01*
X123963864Y-103259431D01*
X123688002Y-103259431D01*
X125503714Y-101443719D01*
X125503717Y-101443717D01*
X125682663Y-101175905D01*
X125706968Y-101053717D01*
X125745501Y-100860000D01*
X125745500Y-100859995D01*
X125745500Y-98912934D01*
X126574500Y-99741934D01*
X126574500Y-100254869D01*
X126448559Y-100335910D01*
X126303569Y-100548110D01*
X126252560Y-100800000D01*
X126252560Y-102300000D01*
X126296838Y-102535317D01*
X126435910Y-102751441D01*
X126648110Y-102896431D01*
X126900000Y-102947440D01*
X127900000Y-102947440D01*
X128135317Y-102903162D01*
X128198567Y-102862462D01*
X128373690Y-102935000D01*
X128714250Y-102935000D01*
X128873000Y-102776250D01*
X128873000Y-101677000D01*
X128853000Y-101677000D01*
X128853000Y-101423000D01*
X128873000Y-101423000D01*
X128873000Y-100323750D01*
X128714250Y-100165000D01*
X128373690Y-100165000D01*
X128225500Y-100226382D01*
X128225500Y-99400005D01*
X128225501Y-99400000D01*
X128162663Y-99084094D01*
X127983717Y-98816283D01*
X127014874Y-97847440D01*
X127900000Y-97847440D01*
X128135317Y-97803162D01*
X128172728Y-97779088D01*
X128198110Y-97796431D01*
X128450000Y-97847440D01*
X129450000Y-97847440D01*
X129685317Y-97803162D01*
X129774228Y-97745949D01*
X129808140Y-97769121D01*
X129837337Y-97915906D01*
X130016283Y-98183717D01*
X130174500Y-98341934D01*
X130174500Y-99658066D01*
X130016283Y-99816283D01*
X129837337Y-100084094D01*
X129821709Y-100162663D01*
X129807605Y-100233566D01*
X129801433Y-100237538D01*
X129626310Y-100165000D01*
X129285750Y-100165000D01*
X129127000Y-100323750D01*
X129127000Y-101423000D01*
X129147000Y-101423000D01*
X129147000Y-101677000D01*
X129127000Y-101677000D01*
X129127000Y-102776250D01*
X129285750Y-102935000D01*
X129397566Y-102935000D01*
X129158066Y-103174500D01*
X127000005Y-103174500D01*
X127000000Y-103174499D01*
X126684095Y-103237337D01*
X126605322Y-103289971D01*
X126552270Y-103161893D01*
X126373642Y-102983264D01*
X126311458Y-102921080D01*
X126086952Y-102921080D01*
X124743979Y-104264053D01*
X124758122Y-104278195D01*
X124578516Y-104457801D01*
X124564374Y-104443658D01*
X123221401Y-105786631D01*
X123221401Y-106011137D01*
X123283585Y-106073321D01*
X123462214Y-106251949D01*
X123695603Y-106348622D01*
X123948222Y-106348621D01*
X124181611Y-106251949D01*
X125164884Y-105268675D01*
X125164884Y-105044171D01*
X125174500Y-105053787D01*
X125174500Y-110150000D01*
X125237337Y-110465906D01*
X125416283Y-110733717D01*
X126252560Y-111569994D01*
X126252560Y-112300000D01*
X126296838Y-112535317D01*
X126435910Y-112751441D01*
X126648110Y-112896431D01*
X126887632Y-112944935D01*
X125416283Y-114416283D01*
X125237337Y-114684094D01*
X125211118Y-114815906D01*
X125174500Y-115000000D01*
X125174500Y-120150000D01*
X125237337Y-120465906D01*
X125416283Y-120733717D01*
X126252560Y-121569994D01*
X126252560Y-122300000D01*
X126296838Y-122535317D01*
X126435910Y-122751441D01*
X126648110Y-122896431D01*
X126900000Y-122947440D01*
X127900000Y-122947440D01*
X128135317Y-122903162D01*
X128198567Y-122862462D01*
X128373690Y-122935000D01*
X128714250Y-122935000D01*
X128873000Y-122776250D01*
X128873000Y-121677000D01*
X128853000Y-121677000D01*
X128853000Y-121423000D01*
X128873000Y-121423000D01*
X128873000Y-120323750D01*
X128714250Y-120165000D01*
X128373690Y-120165000D01*
X128200459Y-120236755D01*
X128151890Y-120203569D01*
X127900000Y-120152560D01*
X127169994Y-120152560D01*
X126825500Y-119808066D01*
X126825500Y-117832353D01*
X126900000Y-117847440D01*
X127900000Y-117847440D01*
X128135317Y-117803162D01*
X128172728Y-117779088D01*
X128198110Y-117796431D01*
X128450000Y-117847440D01*
X129450000Y-117847440D01*
X129685317Y-117803162D01*
X129774228Y-117745949D01*
X129808140Y-117769121D01*
X129837337Y-117915906D01*
X130016283Y-118183717D01*
X130174500Y-118341934D01*
X130174500Y-119158066D01*
X130016283Y-119316283D01*
X129837337Y-119584094D01*
X129837337Y-119584095D01*
X129774500Y-119900000D01*
X129774500Y-120226382D01*
X129626310Y-120165000D01*
X129285750Y-120165000D01*
X129127000Y-120323750D01*
X129127000Y-121423000D01*
X129147000Y-121423000D01*
X129147000Y-121677000D01*
X129127000Y-121677000D01*
X129127000Y-122776250D01*
X129285750Y-122935000D01*
X129626310Y-122935000D01*
X129774500Y-122873618D01*
X129774500Y-122900000D01*
X129837337Y-123215906D01*
X130016283Y-123483717D01*
X130147493Y-123614927D01*
X130065162Y-123813201D01*
X130064838Y-124185167D01*
X130206883Y-124528943D01*
X130469673Y-124792192D01*
X130813201Y-124934838D01*
X131185167Y-124935162D01*
X131290000Y-124891846D01*
X131290000Y-125091036D01*
X131100000Y-125052560D01*
X130100000Y-125052560D01*
X129934928Y-125083620D01*
X129935162Y-124814833D01*
X129793117Y-124471057D01*
X129530327Y-124207808D01*
X129186799Y-124065162D01*
X128814833Y-124064838D01*
X128471057Y-124206883D01*
X128207808Y-124469673D01*
X128065162Y-124813201D01*
X128064924Y-125085958D01*
X127900000Y-125052560D01*
X126900000Y-125052560D01*
X126664683Y-125096838D01*
X126448559Y-125235910D01*
X126303569Y-125448110D01*
X126252560Y-125700000D01*
X126252560Y-127200000D01*
X126296838Y-127435317D01*
X126435910Y-127651441D01*
X126648110Y-127796431D01*
X126900000Y-127847440D01*
X127900000Y-127847440D01*
X128135317Y-127803162D01*
X128172728Y-127779088D01*
X128198110Y-127796431D01*
X128450000Y-127847440D01*
X129450000Y-127847440D01*
X129685317Y-127803162D01*
X129774228Y-127745949D01*
X129848110Y-127796431D01*
X129924500Y-127811900D01*
X129924500Y-128489887D01*
X129815162Y-128753201D01*
X129814838Y-129125167D01*
X129956883Y-129468943D01*
X130219673Y-129732192D01*
X130563201Y-129874838D01*
X130935167Y-129875162D01*
X131278943Y-129733117D01*
X131290000Y-129722079D01*
X131290000Y-130757567D01*
X130758717Y-130226283D01*
X130490906Y-130047337D01*
X130175000Y-129984500D01*
X129859094Y-130047337D01*
X129591283Y-130226283D01*
X129412337Y-130494094D01*
X129387293Y-130620000D01*
X129381106Y-130651105D01*
X129224095Y-130682337D01*
X128956283Y-130861283D01*
X128956281Y-130861286D01*
X128321283Y-131496283D01*
X128142337Y-131764094D01*
X128104894Y-131952337D01*
X128079500Y-132080000D01*
X128079500Y-132715000D01*
X128142337Y-133030905D01*
X128315458Y-133290000D01*
X123356699Y-133290000D01*
X123446371Y-133200485D01*
X123634785Y-132746734D01*
X123635214Y-132255421D01*
X123447592Y-131801343D01*
X123100485Y-131453629D01*
X122651742Y-131267295D01*
X122696431Y-131201890D01*
X122747440Y-130950000D01*
X122747440Y-130457745D01*
X123171861Y-130457745D01*
X123245995Y-130703864D01*
X123783223Y-130896965D01*
X124353454Y-130869778D01*
X124754005Y-130703864D01*
X124828139Y-130457745D01*
X124000000Y-129629605D01*
X123171861Y-130457745D01*
X122747440Y-130457745D01*
X122747440Y-130204398D01*
X122992255Y-130278139D01*
X123820395Y-129450000D01*
X124179605Y-129450000D01*
X125007745Y-130278139D01*
X125253864Y-130204005D01*
X125446965Y-129666777D01*
X125419778Y-129096546D01*
X125253864Y-128695995D01*
X125007745Y-128621861D01*
X124179605Y-129450000D01*
X123820395Y-129450000D01*
X122992255Y-128621861D01*
X122747440Y-128695602D01*
X122747440Y-128450000D01*
X122745983Y-128442255D01*
X123171861Y-128442255D01*
X124000000Y-129270395D01*
X124828139Y-128442255D01*
X124754005Y-128196136D01*
X124216777Y-128003035D01*
X123646546Y-128030222D01*
X123245995Y-128196136D01*
X123171861Y-128442255D01*
X122745983Y-128442255D01*
X122703162Y-128214683D01*
X122564090Y-127998559D01*
X122351890Y-127853569D01*
X122100000Y-127802560D01*
X120900000Y-127802560D01*
X120825500Y-127816578D01*
X120825500Y-127450113D01*
X120934838Y-127186799D01*
X120935162Y-126814833D01*
X120793117Y-126471057D01*
X120530327Y-126207808D01*
X120186799Y-126065162D01*
X119934944Y-126064943D01*
X119935162Y-125814833D01*
X119793117Y-125471057D01*
X119530327Y-125207808D01*
X119186799Y-125065162D01*
X118814833Y-125064838D01*
X118471057Y-125206883D01*
X118207808Y-125469673D01*
X118065162Y-125813201D01*
X118064838Y-126185167D01*
X118174500Y-126450570D01*
X118174500Y-127844991D01*
X118164683Y-127846838D01*
X117948559Y-127985910D01*
X117803569Y-128198110D01*
X117752560Y-128450000D01*
X117752560Y-130950000D01*
X117796838Y-131185317D01*
X117935910Y-131401441D01*
X118148110Y-131546431D01*
X118400000Y-131597440D01*
X119600000Y-131597440D01*
X119835317Y-131553162D01*
X120051441Y-131414090D01*
X120196431Y-131201890D01*
X120247440Y-130950000D01*
X120247440Y-128919993D01*
X120252560Y-128914873D01*
X120252560Y-130950000D01*
X120296838Y-131185317D01*
X120435910Y-131401441D01*
X120648110Y-131546431D01*
X120900000Y-131597440D01*
X121556057Y-131597440D01*
X121353629Y-131799515D01*
X121165215Y-132253266D01*
X121164786Y-132744579D01*
X121352408Y-133198657D01*
X121443592Y-133290000D01*
X116556699Y-133290000D01*
X116646371Y-133200485D01*
X116834785Y-132746734D01*
X116835214Y-132255421D01*
X116647592Y-131801343D01*
X116444045Y-131597440D01*
X117100000Y-131597440D01*
X117335317Y-131553162D01*
X117551441Y-131414090D01*
X117696431Y-131201890D01*
X117747440Y-130950000D01*
X117747440Y-128450000D01*
X117703162Y-128214683D01*
X117564090Y-127998559D01*
X117351890Y-127853569D01*
X117100000Y-127802560D01*
X115900000Y-127802560D01*
X115664683Y-127846838D01*
X115448559Y-127985910D01*
X115348524Y-128132316D01*
X115186799Y-128065162D01*
X114814833Y-128064838D01*
X114471057Y-128206883D01*
X114207808Y-128469673D01*
X114065162Y-128813201D01*
X114064838Y-129185167D01*
X114195069Y-129500351D01*
X114065162Y-129813201D01*
X114064838Y-130185167D01*
X114206883Y-130528943D01*
X114469673Y-130792192D01*
X114813201Y-130934838D01*
X115185167Y-130935162D01*
X115252560Y-130907316D01*
X115252560Y-130950000D01*
X115296838Y-131185317D01*
X115349539Y-131267216D01*
X114901343Y-131452408D01*
X114553629Y-131799515D01*
X114365215Y-132253266D01*
X114364786Y-132744579D01*
X114552408Y-133198657D01*
X114643592Y-133290000D01*
X113022298Y-133290000D01*
X113128830Y-133258689D01*
X113560359Y-132910754D01*
X113825891Y-132424165D01*
X113842071Y-132345898D01*
X113719814Y-132127000D01*
X111627000Y-132127000D01*
X111627000Y-132147000D01*
X111373000Y-132147000D01*
X111373000Y-132127000D01*
X109280186Y-132127000D01*
X109157929Y-132345898D01*
X109174109Y-132424165D01*
X109439641Y-132910754D01*
X109871170Y-133258689D01*
X109977702Y-133290000D01*
X108022298Y-133290000D01*
X108128830Y-133258689D01*
X108560359Y-132910754D01*
X108825891Y-132424165D01*
X108842071Y-132345898D01*
X108719814Y-132127000D01*
X106627000Y-132127000D01*
X106627000Y-132147000D01*
X106373000Y-132147000D01*
X106373000Y-132127000D01*
X104280186Y-132127000D01*
X104157929Y-132345898D01*
X104174109Y-132424165D01*
X104439641Y-132910754D01*
X104871170Y-133258689D01*
X104977702Y-133290000D01*
X94710000Y-133290000D01*
X94710000Y-128914654D01*
X94816283Y-129073717D01*
X96404962Y-130662396D01*
X96404838Y-130805167D01*
X96546883Y-131148943D01*
X96809673Y-131412192D01*
X97153201Y-131554838D01*
X97525167Y-131555162D01*
X97868943Y-131413117D01*
X98132192Y-131150327D01*
X98274838Y-130806799D01*
X98275162Y-130434833D01*
X98133117Y-130091057D01*
X97994461Y-129952158D01*
X97923717Y-129846283D01*
X97923714Y-129846281D01*
X97911621Y-129834187D01*
X100564752Y-129834187D01*
X100782757Y-130361800D01*
X101186077Y-130765824D01*
X101713309Y-130984750D01*
X102284187Y-130985248D01*
X102811800Y-130767243D01*
X103215824Y-130363923D01*
X103434750Y-129836691D01*
X103435248Y-129265813D01*
X103308400Y-128958815D01*
X104282682Y-128958815D01*
X104405344Y-129173000D01*
X105873000Y-129173000D01*
X105873000Y-127915000D01*
X105498000Y-127915000D01*
X104977651Y-128069028D01*
X104555855Y-128410460D01*
X104296827Y-128887316D01*
X104282682Y-128958815D01*
X103308400Y-128958815D01*
X103217243Y-128738200D01*
X102813923Y-128334176D01*
X102286691Y-128115250D01*
X101715813Y-128114752D01*
X101188200Y-128332757D01*
X100784176Y-128736077D01*
X100565250Y-129263309D01*
X100564752Y-129834187D01*
X97911621Y-129834187D01*
X96225500Y-128148066D01*
X96225500Y-127773618D01*
X96373690Y-127835000D01*
X96714250Y-127835000D01*
X96873000Y-127676250D01*
X96873000Y-126577000D01*
X96853000Y-126577000D01*
X96853000Y-126323000D01*
X96873000Y-126323000D01*
X96873000Y-126303000D01*
X97127000Y-126303000D01*
X97127000Y-126323000D01*
X97147000Y-126323000D01*
X97147000Y-126577000D01*
X97127000Y-126577000D01*
X97127000Y-127676250D01*
X97285750Y-127835000D01*
X97565143Y-127835000D01*
X97564838Y-128185167D01*
X97706883Y-128528943D01*
X97969673Y-128792192D01*
X98313201Y-128934838D01*
X98685167Y-128935162D01*
X99028943Y-128793117D01*
X99292192Y-128530327D01*
X99434838Y-128186799D01*
X99435162Y-127814833D01*
X99425500Y-127791449D01*
X99425500Y-127745131D01*
X99551441Y-127664090D01*
X99696431Y-127451890D01*
X99747440Y-127200000D01*
X99747440Y-125700000D01*
X99703162Y-125464683D01*
X99564090Y-125248559D01*
X99351890Y-125103569D01*
X99100000Y-125052560D01*
X98100000Y-125052560D01*
X97864683Y-125096838D01*
X97801433Y-125137538D01*
X97626310Y-125065000D01*
X97285750Y-125065000D01*
X97127002Y-125223748D01*
X97127002Y-125065000D01*
X97102433Y-125065000D01*
X97341933Y-124825500D01*
X99000000Y-124825500D01*
X99315906Y-124762663D01*
X99583717Y-124583717D01*
X100583714Y-123583719D01*
X100583717Y-123583717D01*
X100762663Y-123315905D01*
X100788344Y-123186799D01*
X100825501Y-123000000D01*
X100825500Y-122999995D01*
X100825500Y-117850005D01*
X100825501Y-117850000D01*
X100762663Y-117534094D01*
X100583717Y-117266283D01*
X99747440Y-116430006D01*
X99747440Y-115700000D01*
X99703162Y-115464683D01*
X99564090Y-115248559D01*
X99451820Y-115171848D01*
X99583717Y-115083717D01*
X100583714Y-114083719D01*
X100583717Y-114083717D01*
X100762663Y-113815905D01*
X100770700Y-113775500D01*
X100825501Y-113500000D01*
X100825500Y-113499995D01*
X100825500Y-107850005D01*
X100825501Y-107850000D01*
X100762663Y-107534094D01*
X100583717Y-107266283D01*
X99747440Y-106430006D01*
X99747440Y-105700000D01*
X99703162Y-105464683D01*
X99564090Y-105248559D01*
X99351890Y-105103569D01*
X99100000Y-105052560D01*
X98769920Y-105052560D01*
X98792192Y-105030327D01*
X98934838Y-104686799D01*
X98935162Y-104314833D01*
X98793117Y-103971057D01*
X98530327Y-103707808D01*
X98186799Y-103565162D01*
X97814833Y-103564838D01*
X97717216Y-103605173D01*
X97792192Y-103530327D01*
X97934838Y-103186799D01*
X97935076Y-102914042D01*
X98100000Y-102947440D01*
X99100000Y-102947440D01*
X99335317Y-102903162D01*
X99551441Y-102764090D01*
X99696431Y-102551890D01*
X99747440Y-102300000D01*
X99747440Y-100800000D01*
X99703571Y-100566855D01*
X102179484Y-100566855D01*
X102179485Y-100819474D01*
X102276157Y-101052863D01*
X103259431Y-102036136D01*
X103483937Y-102036136D01*
X104084448Y-101435626D01*
X102741475Y-100092653D01*
X102516969Y-100092653D01*
X102454785Y-100154837D01*
X102276157Y-100333466D01*
X102179484Y-100566855D01*
X99703571Y-100566855D01*
X99703162Y-100564683D01*
X99564090Y-100348559D01*
X99351890Y-100203569D01*
X99100000Y-100152560D01*
X98100000Y-100152560D01*
X97864683Y-100196838D01*
X97827272Y-100220912D01*
X97801890Y-100203569D01*
X97550000Y-100152560D01*
X96550000Y-100152560D01*
X96314683Y-100196838D01*
X96225772Y-100254051D01*
X96191860Y-100230879D01*
X96162663Y-100084095D01*
X95983717Y-99816283D01*
X95983714Y-99816281D01*
X95825500Y-99658067D01*
X95825500Y-98341933D01*
X95983714Y-98183719D01*
X95983717Y-98183717D01*
X96162663Y-97915905D01*
X96192395Y-97766434D01*
X96198567Y-97762462D01*
X96373690Y-97835000D01*
X96714250Y-97835000D01*
X96873000Y-97676250D01*
X96873000Y-96577000D01*
X96853000Y-96577000D01*
X96853000Y-96323000D01*
X96873000Y-96323000D01*
X96873000Y-96303000D01*
X97127000Y-96303000D01*
X97127000Y-96323000D01*
X97147000Y-96323000D01*
X97147000Y-96577000D01*
X97127000Y-96577000D01*
X97127000Y-97676250D01*
X97285750Y-97835000D01*
X97626310Y-97835000D01*
X97774500Y-97773618D01*
X97774500Y-98058066D01*
X97734560Y-98098006D01*
X97471057Y-98206883D01*
X97207808Y-98469673D01*
X97065162Y-98813201D01*
X97064838Y-99185167D01*
X97206883Y-99528943D01*
X97469673Y-99792192D01*
X97813201Y-99934838D01*
X98185167Y-99935162D01*
X98528943Y-99793117D01*
X98633700Y-99688542D01*
X102921080Y-99688542D01*
X102921080Y-99913048D01*
X104264053Y-101256021D01*
X104864563Y-100655510D01*
X104864563Y-100431004D01*
X103881290Y-99447730D01*
X103647901Y-99351058D01*
X103395282Y-99351057D01*
X103161893Y-99447730D01*
X102983264Y-99626358D01*
X102921080Y-99688542D01*
X98633700Y-99688542D01*
X98792192Y-99530327D01*
X98902318Y-99265116D01*
X99183717Y-98983717D01*
X99362663Y-98715906D01*
X99425500Y-98400000D01*
X99425500Y-97745131D01*
X99551441Y-97664090D01*
X99696431Y-97451890D01*
X99747440Y-97200000D01*
X99747440Y-95700000D01*
X99703162Y-95464683D01*
X99564090Y-95248559D01*
X99351890Y-95103569D01*
X99112369Y-95055065D01*
X100583714Y-93583719D01*
X100583717Y-93583717D01*
X100715891Y-93385905D01*
X100762663Y-93315906D01*
X100825500Y-93000000D01*
X100825500Y-89124849D01*
X100999309Y-89125000D01*
G36*
X97127000Y-116323000D02*
X97147000Y-116323000D01*
X97147000Y-116577000D01*
X97127000Y-116577000D01*
X97127000Y-117676250D01*
X97285750Y-117835000D01*
X97626310Y-117835000D01*
X97799541Y-117763245D01*
X97848110Y-117796431D01*
X98100000Y-117847440D01*
X98830006Y-117847440D01*
X99174500Y-118191934D01*
X99174500Y-120167647D01*
X99100000Y-120152560D01*
X98100000Y-120152560D01*
X97864683Y-120196838D01*
X97827272Y-120220912D01*
X97801890Y-120203569D01*
X97550000Y-120152560D01*
X96550000Y-120152560D01*
X96314683Y-120196838D01*
X96225772Y-120254051D01*
X96225500Y-120253865D01*
X96225500Y-119900000D01*
X96162663Y-119584095D01*
X95983717Y-119316283D01*
X95983714Y-119316281D01*
X95825500Y-119158067D01*
X95825500Y-118341933D01*
X95983714Y-118183719D01*
X95983717Y-118183717D01*
X96162663Y-117915905D01*
X96192395Y-117766434D01*
X96198567Y-117762462D01*
X96373690Y-117835000D01*
X96714250Y-117835000D01*
X96873000Y-117676250D01*
X96873000Y-116577000D01*
X96853000Y-116577000D01*
X96853000Y-116323000D01*
X96873000Y-116323000D01*
X96873000Y-116303000D01*
X97127000Y-116303000D01*
X97127000Y-116323000D01*
X97127000Y-116323000D01*
G37*
X97127000Y-116323000D02*
X97147000Y-116323000D01*
X97147000Y-116577000D01*
X97127000Y-116577000D01*
X97127000Y-117676250D01*
X97285750Y-117835000D01*
X97626310Y-117835000D01*
X97799541Y-117763245D01*
X97848110Y-117796431D01*
X98100000Y-117847440D01*
X98830006Y-117847440D01*
X99174500Y-118191934D01*
X99174500Y-120167647D01*
X99100000Y-120152560D01*
X98100000Y-120152560D01*
X97864683Y-120196838D01*
X97827272Y-120220912D01*
X97801890Y-120203569D01*
X97550000Y-120152560D01*
X96550000Y-120152560D01*
X96314683Y-120196838D01*
X96225772Y-120254051D01*
X96225500Y-120253865D01*
X96225500Y-119900000D01*
X96162663Y-119584095D01*
X95983717Y-119316283D01*
X95983714Y-119316281D01*
X95825500Y-119158067D01*
X95825500Y-118341933D01*
X95983714Y-118183719D01*
X95983717Y-118183717D01*
X96162663Y-117915905D01*
X96192395Y-117766434D01*
X96198567Y-117762462D01*
X96373690Y-117835000D01*
X96714250Y-117835000D01*
X96873000Y-117676250D01*
X96873000Y-116577000D01*
X96853000Y-116577000D01*
X96853000Y-116323000D01*
X96873000Y-116323000D01*
X96873000Y-116303000D01*
X97127000Y-116303000D01*
X97127000Y-116323000D01*
G36*
X119155607Y-70197434D02*
X118909570Y-70565654D01*
X118823173Y-71000000D01*
X118909570Y-71434346D01*
X119155607Y-71802566D01*
X119451088Y-72000000D01*
X119155607Y-72197434D01*
X118909570Y-72565654D01*
X118823173Y-73000000D01*
X118909570Y-73434346D01*
X119155607Y-73802566D01*
X119451088Y-74000000D01*
X119155607Y-74197434D01*
X118909570Y-74565654D01*
X118823173Y-75000000D01*
X118909570Y-75434346D01*
X119155607Y-75802566D01*
X119451088Y-76000000D01*
X119155607Y-76197434D01*
X118909570Y-76565654D01*
X118823173Y-77000000D01*
X118909570Y-77434346D01*
X119155607Y-77802566D01*
X119451088Y-78000000D01*
X119155607Y-78197434D01*
X118909570Y-78565654D01*
X118823173Y-79000000D01*
X118909570Y-79434346D01*
X119155607Y-79802566D01*
X119451088Y-80000000D01*
X119155607Y-80197434D01*
X118909570Y-80565654D01*
X118823173Y-81000000D01*
X118909570Y-81434346D01*
X119155607Y-81802566D01*
X119450194Y-81999403D01*
X119448322Y-81999998D01*
X119107632Y-82287237D01*
X118905881Y-82698126D01*
X119032046Y-82873000D01*
X120873000Y-82873000D01*
X120873000Y-82853000D01*
X121127000Y-82853000D01*
X121127000Y-82873000D01*
X122967954Y-82873000D01*
X123094119Y-82698126D01*
X122892368Y-82287237D01*
X122551678Y-81999998D01*
X122549806Y-81999403D01*
X122810070Y-81825500D01*
X123133065Y-81825500D01*
X123146883Y-81858943D01*
X123409673Y-82122192D01*
X123753201Y-82264838D01*
X124125167Y-82265162D01*
X124468943Y-82123117D01*
X124684897Y-81907540D01*
X124684838Y-81975167D01*
X124826883Y-82318943D01*
X125089673Y-82582192D01*
X125433201Y-82724838D01*
X125805167Y-82725162D01*
X126148943Y-82583117D01*
X126281023Y-82451267D01*
X126296838Y-82535317D01*
X126435910Y-82751441D01*
X126648110Y-82896431D01*
X126900000Y-82947440D01*
X127900000Y-82947440D01*
X128135317Y-82903162D01*
X128198567Y-82862462D01*
X128373690Y-82935000D01*
X128714250Y-82935000D01*
X128873000Y-82776250D01*
X128873000Y-81677000D01*
X128853000Y-81677000D01*
X128853000Y-81423000D01*
X128873000Y-81423000D01*
X128873000Y-80323750D01*
X128714250Y-80165000D01*
X128373690Y-80165000D01*
X128225500Y-80226382D01*
X128225500Y-79900005D01*
X128225501Y-79900000D01*
X128162663Y-79584095D01*
X128109479Y-79504500D01*
X127983717Y-79316283D01*
X127983714Y-79316281D01*
X126325500Y-77658066D01*
X126325500Y-77479859D01*
X126435910Y-77651441D01*
X126648110Y-77796431D01*
X126900000Y-77847440D01*
X127900000Y-77847440D01*
X128135317Y-77803162D01*
X128172728Y-77779088D01*
X128198110Y-77796431D01*
X128450000Y-77847440D01*
X129450000Y-77847440D01*
X129685317Y-77803162D01*
X129774228Y-77745949D01*
X129808140Y-77769121D01*
X129837337Y-77915906D01*
X130016283Y-78183717D01*
X130174500Y-78341934D01*
X130174500Y-79158066D01*
X130016283Y-79316283D01*
X129837337Y-79584094D01*
X129837337Y-79584095D01*
X129774500Y-79900000D01*
X129774500Y-80226382D01*
X129626310Y-80165000D01*
X129285750Y-80165000D01*
X129127000Y-80323750D01*
X129127000Y-81423000D01*
X129147000Y-81423000D01*
X129147000Y-81677000D01*
X129127000Y-81677000D01*
X129127000Y-82776250D01*
X129285750Y-82935000D01*
X129397566Y-82935000D01*
X129158066Y-83174500D01*
X127000005Y-83174500D01*
X127000000Y-83174499D01*
X126684095Y-83237337D01*
X126416283Y-83416283D01*
X126416281Y-83416286D01*
X125427904Y-84404662D01*
X125323117Y-84151057D01*
X125060327Y-83887808D01*
X125044904Y-83881404D01*
X125045162Y-83584833D01*
X124903117Y-83241057D01*
X124640327Y-82977808D01*
X124296799Y-82835162D01*
X123924833Y-82834838D01*
X123581057Y-82976883D01*
X123317808Y-83239673D01*
X123207682Y-83504884D01*
X123106283Y-83606283D01*
X122927337Y-83874094D01*
X122902293Y-84000000D01*
X122864500Y-84190000D01*
X122864500Y-84263741D01*
X122551680Y-84000000D01*
X122892368Y-83712763D01*
X123094119Y-83301874D01*
X122967954Y-83127000D01*
X121127000Y-83127000D01*
X121127000Y-84873000D01*
X121147000Y-84873000D01*
X121147000Y-85127000D01*
X121127000Y-85127000D01*
X121127000Y-86135000D01*
X122127000Y-86135000D01*
X122551678Y-86000002D01*
X122864500Y-85736259D01*
X122864500Y-87282822D01*
X122661057Y-87366883D01*
X122397808Y-87629673D01*
X122255162Y-87973201D01*
X122254838Y-88345167D01*
X122396883Y-88688943D01*
X122495123Y-88787354D01*
X122606283Y-88953717D01*
X122614500Y-88961934D01*
X122614500Y-92868066D01*
X119436472Y-96046094D01*
X119311458Y-95921080D01*
X119086952Y-95921080D01*
X117743979Y-97264053D01*
X117758122Y-97278196D01*
X117578517Y-97457801D01*
X117564374Y-97443658D01*
X116221401Y-98786631D01*
X116221401Y-99011137D01*
X116283585Y-99073321D01*
X116462214Y-99251949D01*
X116695603Y-99348622D01*
X116948222Y-99348621D01*
X117074500Y-99296315D01*
X117074500Y-101929639D01*
X114851909Y-104152230D01*
X114672963Y-104420041D01*
X114657058Y-104500000D01*
X114610126Y-104735947D01*
X114610126Y-106938722D01*
X113528248Y-108020600D01*
X113393163Y-108218303D01*
X113338679Y-108469465D01*
X113386203Y-108722036D01*
X113528248Y-108936218D01*
X114235355Y-109643325D01*
X114433058Y-109778410D01*
X114684220Y-109832894D01*
X114936791Y-109785370D01*
X115150973Y-109643325D01*
X117343004Y-107451294D01*
X117478089Y-107253591D01*
X117532573Y-107002429D01*
X117485049Y-106749858D01*
X117343004Y-106535676D01*
X116635897Y-105828569D01*
X116438194Y-105693484D01*
X116261126Y-105655073D01*
X116261126Y-105077881D01*
X118483717Y-102855290D01*
X118662663Y-102587479D01*
X118725500Y-102271573D01*
X118725500Y-99091934D01*
X123364500Y-94452934D01*
X123364500Y-99956530D01*
X122936218Y-99528248D01*
X122738515Y-99393163D01*
X122487353Y-99338679D01*
X122234782Y-99386203D01*
X122020600Y-99528248D01*
X119828569Y-101720279D01*
X119693484Y-101917982D01*
X119639000Y-102169144D01*
X119686524Y-102421715D01*
X119828569Y-102635897D01*
X120371195Y-103178523D01*
X120307337Y-103274094D01*
X120255695Y-103533717D01*
X120244500Y-103590000D01*
X120244500Y-109474280D01*
X120171431Y-109364103D01*
X119464324Y-108656996D01*
X119266621Y-108521911D01*
X119015459Y-108467427D01*
X118762888Y-108514951D01*
X118548706Y-108656996D01*
X116356675Y-110849027D01*
X116221590Y-111046730D01*
X116167106Y-111297892D01*
X116214630Y-111550463D01*
X116356675Y-111764645D01*
X117063782Y-112471752D01*
X117261485Y-112606837D01*
X117512647Y-112661321D01*
X117765218Y-112613797D01*
X117979400Y-112471752D01*
X120171431Y-110279721D01*
X120244500Y-110172781D01*
X120244500Y-112408067D01*
X118104178Y-114548389D01*
X118104838Y-114546799D01*
X118105162Y-114174833D01*
X117963117Y-113831057D01*
X117700327Y-113567808D01*
X117356799Y-113425162D01*
X116984833Y-113424838D01*
X116641057Y-113566883D01*
X116377808Y-113829673D01*
X116267682Y-114094885D01*
X115965440Y-114397127D01*
X115965440Y-114171200D01*
X115921162Y-113935883D01*
X115782090Y-113719759D01*
X115569890Y-113574769D01*
X115318000Y-113523760D01*
X113286000Y-113523760D01*
X113050683Y-113568038D01*
X112834559Y-113707110D01*
X112689569Y-113919310D01*
X112638560Y-114171200D01*
X112638560Y-115174500D01*
X109264279Y-115174500D01*
X109178090Y-115040559D01*
X108965890Y-114895569D01*
X108775431Y-114857000D01*
X108840310Y-114857000D01*
X109073699Y-114760327D01*
X109252327Y-114581698D01*
X109349000Y-114348309D01*
X109349000Y-113999750D01*
X109190250Y-113841000D01*
X107825000Y-113841000D01*
X107825000Y-113861000D01*
X107571000Y-113861000D01*
X107571000Y-113841000D01*
X106205750Y-113841000D01*
X106047000Y-113999750D01*
X106047000Y-114023974D01*
X105984699Y-113961673D01*
X105751310Y-113865000D01*
X105285750Y-113865000D01*
X105127000Y-114023750D01*
X105127000Y-114873000D01*
X106101250Y-114873000D01*
X106260000Y-114714250D01*
X106260000Y-114698026D01*
X106322301Y-114760327D01*
X106555690Y-114857000D01*
X106615887Y-114857000D01*
X106446683Y-114888838D01*
X106230559Y-115027910D01*
X106137848Y-115163598D01*
X106101250Y-115127000D01*
X105127000Y-115127000D01*
X105127000Y-115147000D01*
X104873000Y-115147000D01*
X104873000Y-115127000D01*
X103898750Y-115127000D01*
X103851250Y-115174500D01*
X103699287Y-115174500D01*
X103676799Y-115165162D01*
X103304833Y-115164838D01*
X102961057Y-115306883D01*
X102855500Y-115412256D01*
X102855500Y-114373691D01*
X103740000Y-114373691D01*
X103740000Y-114714250D01*
X103898750Y-114873000D01*
X104873000Y-114873000D01*
X104873000Y-114023750D01*
X104714250Y-113865000D01*
X104248690Y-113865000D01*
X104015301Y-113961673D01*
X103836673Y-114140302D01*
X103740000Y-114373691D01*
X102855500Y-114373691D01*
X102855500Y-113079691D01*
X106047000Y-113079691D01*
X106047000Y-113428250D01*
X106205750Y-113587000D01*
X107571000Y-113587000D01*
X107571000Y-112729750D01*
X107412250Y-112571000D01*
X106555690Y-112571000D01*
X106322301Y-112667673D01*
X106143673Y-112846302D01*
X106047000Y-113079691D01*
X102855500Y-113079691D01*
X102855500Y-109812968D01*
X105639000Y-109812968D01*
X105686524Y-110065539D01*
X105828569Y-110279721D01*
X108020600Y-112471752D01*
X108165854Y-112571000D01*
X107983750Y-112571000D01*
X107825000Y-112729750D01*
X107825000Y-113587000D01*
X109190250Y-113587000D01*
X109349000Y-113428250D01*
X109349000Y-113079691D01*
X109252327Y-112846302D01*
X109073699Y-112667673D01*
X108840310Y-112571000D01*
X108786567Y-112571000D01*
X108936218Y-112471752D01*
X109643325Y-111764645D01*
X109778410Y-111566942D01*
X109832894Y-111315780D01*
X109785370Y-111063209D01*
X109643325Y-110849027D01*
X108561447Y-109767149D01*
X108561447Y-107307221D01*
X108656996Y-107451294D01*
X110849027Y-109643325D01*
X111046730Y-109778410D01*
X111297892Y-109832894D01*
X111550463Y-109785370D01*
X111764645Y-109643325D01*
X112471752Y-108936218D01*
X112606837Y-108738515D01*
X112661321Y-108487353D01*
X112613797Y-108234782D01*
X112471752Y-108020600D01*
X110279721Y-105828569D01*
X110082018Y-105693484D01*
X109830856Y-105639000D01*
X109578285Y-105686524D01*
X109364103Y-105828569D01*
X108656996Y-106535676D01*
X108561447Y-106675516D01*
X108561447Y-106615947D01*
X108498610Y-106300042D01*
X108319664Y-106032230D01*
X108319661Y-106032228D01*
X107741994Y-105454561D01*
X107633117Y-105191057D01*
X107370327Y-104927808D01*
X107026799Y-104785162D01*
X106654833Y-104784838D01*
X106311057Y-104926883D01*
X106047808Y-105189673D01*
X105905162Y-105533201D01*
X105904838Y-105905167D01*
X106046883Y-106248943D01*
X106309673Y-106512192D01*
X106574884Y-106622318D01*
X106910447Y-106957880D01*
X106910447Y-108484734D01*
X106749858Y-108514951D01*
X106535676Y-108656996D01*
X105828569Y-109364103D01*
X105693484Y-109561806D01*
X105639000Y-109812968D01*
X102855500Y-109812968D01*
X102855500Y-107483507D01*
X106041115Y-104297892D01*
X109167106Y-104297892D01*
X109214630Y-104550463D01*
X109356675Y-104764645D01*
X110063782Y-105471752D01*
X110261485Y-105606837D01*
X110512647Y-105661321D01*
X110765218Y-105613797D01*
X110979400Y-105471752D01*
X113171431Y-103279721D01*
X113306516Y-103082018D01*
X113361000Y-102830856D01*
X113313476Y-102578285D01*
X113171431Y-102364103D01*
X112464324Y-101656996D01*
X112266621Y-101521911D01*
X112015459Y-101467427D01*
X111762888Y-101514951D01*
X111548706Y-101656996D01*
X109356675Y-103849027D01*
X109221590Y-104046730D01*
X109167106Y-104297892D01*
X106041115Y-104297892D01*
X107537862Y-102801145D01*
X107684220Y-102832894D01*
X107936791Y-102785370D01*
X108150973Y-102643325D01*
X110343004Y-100451294D01*
X110478089Y-100253591D01*
X110532573Y-100002429D01*
X110485049Y-99749858D01*
X110343004Y-99535676D01*
X109635897Y-98828569D01*
X109438194Y-98693484D01*
X109261126Y-98655073D01*
X109261126Y-98132824D01*
X115479805Y-98132824D01*
X115576478Y-98366213D01*
X115755106Y-98544842D01*
X115817290Y-98607026D01*
X116041796Y-98607026D01*
X117384769Y-97264053D01*
X116784258Y-96663543D01*
X116559752Y-96663543D01*
X115576478Y-97646816D01*
X115479806Y-97880205D01*
X115479805Y-98132824D01*
X109261126Y-98132824D01*
X109261126Y-95515626D01*
X109198289Y-95199721D01*
X109019343Y-94931909D01*
X109019340Y-94931907D01*
X108291994Y-94204560D01*
X108183117Y-93941057D01*
X108067761Y-93825500D01*
X110460000Y-93825500D01*
X110775906Y-93762663D01*
X111043717Y-93583717D01*
X111081841Y-93545593D01*
X111222641Y-93573600D01*
X111281359Y-93573600D01*
X111854848Y-93459526D01*
X112320442Y-93148426D01*
X112325238Y-93173917D01*
X112464310Y-93390041D01*
X112676510Y-93535031D01*
X112928400Y-93586040D01*
X113962808Y-93586040D01*
X112828569Y-94720279D01*
X112693484Y-94917982D01*
X112639000Y-95169144D01*
X112686524Y-95421715D01*
X112828569Y-95635897D01*
X113535676Y-96343004D01*
X113733379Y-96478089D01*
X113984541Y-96532573D01*
X114237112Y-96485049D01*
X114451294Y-96343004D01*
X114534867Y-96259431D01*
X116963864Y-96259431D01*
X116963864Y-96483937D01*
X117564374Y-97084448D01*
X118907347Y-95741475D01*
X118907347Y-95516969D01*
X118845163Y-95454785D01*
X118666534Y-95276157D01*
X118433145Y-95179484D01*
X118180526Y-95179485D01*
X117947137Y-95276157D01*
X116963864Y-96259431D01*
X114534867Y-96259431D01*
X116643325Y-94150973D01*
X116778410Y-93953270D01*
X116832894Y-93702108D01*
X116785370Y-93449537D01*
X116643325Y-93235355D01*
X115936218Y-92528248D01*
X115759757Y-92407677D01*
X117341934Y-90825500D01*
X117549887Y-90825500D01*
X117813201Y-90934838D01*
X117944865Y-90934953D01*
X118035910Y-91076441D01*
X118248110Y-91221431D01*
X118500000Y-91272440D01*
X119500000Y-91272440D01*
X119735317Y-91228162D01*
X119951441Y-91089090D01*
X119997969Y-91020994D01*
X120140302Y-91163327D01*
X120373691Y-91260000D01*
X120714250Y-91260000D01*
X120873000Y-91101250D01*
X120873000Y-90127000D01*
X121127000Y-90127000D01*
X121127000Y-91101250D01*
X121285750Y-91260000D01*
X121626309Y-91260000D01*
X121859698Y-91163327D01*
X122038327Y-90984699D01*
X122135000Y-90751310D01*
X122135000Y-90285750D01*
X121976250Y-90127000D01*
X121127000Y-90127000D01*
X120873000Y-90127000D01*
X120853000Y-90127000D01*
X120853000Y-89873000D01*
X120873000Y-89873000D01*
X120873000Y-88898750D01*
X121127000Y-88898750D01*
X121127000Y-89873000D01*
X121976250Y-89873000D01*
X122135000Y-89714250D01*
X122135000Y-89248690D01*
X122038327Y-89015301D01*
X121859698Y-88836673D01*
X121626309Y-88740000D01*
X121285750Y-88740000D01*
X121127000Y-88898750D01*
X120873000Y-88898750D01*
X120714250Y-88740000D01*
X120373691Y-88740000D01*
X120140302Y-88836673D01*
X119999064Y-88977910D01*
X119964090Y-88923559D01*
X119751890Y-88778569D01*
X119500000Y-88727560D01*
X118500000Y-88727560D01*
X118264683Y-88771838D01*
X118048559Y-88910910D01*
X117943308Y-89064950D01*
X117814833Y-89064838D01*
X117549430Y-89174500D01*
X117341934Y-89174500D01*
X116287144Y-88119710D01*
X116434346Y-88090430D01*
X116802566Y-87844393D01*
X117000000Y-87548912D01*
X117197434Y-87844393D01*
X117565654Y-88090430D01*
X118000000Y-88176827D01*
X118434346Y-88090430D01*
X118802566Y-87844393D01*
X119048603Y-87476173D01*
X119135000Y-87041827D01*
X119135000Y-85735837D01*
X119448322Y-86000002D01*
X119873000Y-86135000D01*
X120873000Y-86135000D01*
X120873000Y-85127000D01*
X120853000Y-85127000D01*
X120853000Y-84873000D01*
X120873000Y-84873000D01*
X120873000Y-83127000D01*
X119032046Y-83127000D01*
X118905881Y-83301874D01*
X119107632Y-83712763D01*
X119448320Y-84000000D01*
X119107632Y-84287237D01*
X119015667Y-84474535D01*
X118802566Y-84155607D01*
X118434346Y-83909570D01*
X118000000Y-83823173D01*
X117565654Y-83909570D01*
X117197434Y-84155607D01*
X117000000Y-84451088D01*
X116802566Y-84155607D01*
X116434346Y-83909570D01*
X116000000Y-83823173D01*
X115565654Y-83909570D01*
X115197434Y-84155607D01*
X115000000Y-84451088D01*
X114802566Y-84155607D01*
X114434346Y-83909570D01*
X114000000Y-83823173D01*
X113565654Y-83909570D01*
X113197434Y-84155607D01*
X113000000Y-84451088D01*
X112802566Y-84155607D01*
X112434346Y-83909570D01*
X112000000Y-83823173D01*
X111565654Y-83909570D01*
X111197434Y-84155607D01*
X111000000Y-84451088D01*
X110802566Y-84155607D01*
X110434346Y-83909570D01*
X110000000Y-83823173D01*
X109565654Y-83909570D01*
X109197434Y-84155607D01*
X109000000Y-84451088D01*
X108802566Y-84155607D01*
X108434346Y-83909570D01*
X108000000Y-83823173D01*
X107565654Y-83909570D01*
X107197434Y-84155607D01*
X107006940Y-84440702D01*
X106844393Y-84197434D01*
X106548912Y-84000000D01*
X106844393Y-83802566D01*
X107090430Y-83434346D01*
X107176827Y-83000000D01*
X107090430Y-82565654D01*
X106844393Y-82197434D01*
X106548912Y-82000000D01*
X106844393Y-81802566D01*
X107090430Y-81434346D01*
X107176827Y-81000000D01*
X107090430Y-80565654D01*
X106844393Y-80197434D01*
X106548912Y-80000000D01*
X106844393Y-79802566D01*
X107090430Y-79434346D01*
X107176827Y-79000000D01*
X107090430Y-78565654D01*
X106844393Y-78197434D01*
X106548912Y-78000000D01*
X106810070Y-77825500D01*
X107100000Y-77825500D01*
X107415906Y-77762663D01*
X107683717Y-77583717D01*
X108743714Y-76523719D01*
X108743717Y-76523717D01*
X108922663Y-76255905D01*
X108985500Y-75940000D01*
X108985500Y-72320005D01*
X108985501Y-72320000D01*
X108922663Y-72004094D01*
X108743717Y-71736283D01*
X107423717Y-70416283D01*
X107155906Y-70237337D01*
X106840000Y-70174500D01*
X106810070Y-70174500D01*
X106738981Y-70127000D01*
X119261019Y-70127000D01*
X119155607Y-70197434D01*
X119155607Y-70197434D01*
G37*
X119155607Y-70197434D02*
X118909570Y-70565654D01*
X118823173Y-71000000D01*
X118909570Y-71434346D01*
X119155607Y-71802566D01*
X119451088Y-72000000D01*
X119155607Y-72197434D01*
X118909570Y-72565654D01*
X118823173Y-73000000D01*
X118909570Y-73434346D01*
X119155607Y-73802566D01*
X119451088Y-74000000D01*
X119155607Y-74197434D01*
X118909570Y-74565654D01*
X118823173Y-75000000D01*
X118909570Y-75434346D01*
X119155607Y-75802566D01*
X119451088Y-76000000D01*
X119155607Y-76197434D01*
X118909570Y-76565654D01*
X118823173Y-77000000D01*
X118909570Y-77434346D01*
X119155607Y-77802566D01*
X119451088Y-78000000D01*
X119155607Y-78197434D01*
X118909570Y-78565654D01*
X118823173Y-79000000D01*
X118909570Y-79434346D01*
X119155607Y-79802566D01*
X119451088Y-80000000D01*
X119155607Y-80197434D01*
X118909570Y-80565654D01*
X118823173Y-81000000D01*
X118909570Y-81434346D01*
X119155607Y-81802566D01*
X119450194Y-81999403D01*
X119448322Y-81999998D01*
X119107632Y-82287237D01*
X118905881Y-82698126D01*
X119032046Y-82873000D01*
X120873000Y-82873000D01*
X120873000Y-82853000D01*
X121127000Y-82853000D01*
X121127000Y-82873000D01*
X122967954Y-82873000D01*
X123094119Y-82698126D01*
X122892368Y-82287237D01*
X122551678Y-81999998D01*
X122549806Y-81999403D01*
X122810070Y-81825500D01*
X123133065Y-81825500D01*
X123146883Y-81858943D01*
X123409673Y-82122192D01*
X123753201Y-82264838D01*
X124125167Y-82265162D01*
X124468943Y-82123117D01*
X124684897Y-81907540D01*
X124684838Y-81975167D01*
X124826883Y-82318943D01*
X125089673Y-82582192D01*
X125433201Y-82724838D01*
X125805167Y-82725162D01*
X126148943Y-82583117D01*
X126281023Y-82451267D01*
X126296838Y-82535317D01*
X126435910Y-82751441D01*
X126648110Y-82896431D01*
X126900000Y-82947440D01*
X127900000Y-82947440D01*
X128135317Y-82903162D01*
X128198567Y-82862462D01*
X128373690Y-82935000D01*
X128714250Y-82935000D01*
X128873000Y-82776250D01*
X128873000Y-81677000D01*
X128853000Y-81677000D01*
X128853000Y-81423000D01*
X128873000Y-81423000D01*
X128873000Y-80323750D01*
X128714250Y-80165000D01*
X128373690Y-80165000D01*
X128225500Y-80226382D01*
X128225500Y-79900005D01*
X128225501Y-79900000D01*
X128162663Y-79584095D01*
X128109479Y-79504500D01*
X127983717Y-79316283D01*
X127983714Y-79316281D01*
X126325500Y-77658066D01*
X126325500Y-77479859D01*
X126435910Y-77651441D01*
X126648110Y-77796431D01*
X126900000Y-77847440D01*
X127900000Y-77847440D01*
X128135317Y-77803162D01*
X128172728Y-77779088D01*
X128198110Y-77796431D01*
X128450000Y-77847440D01*
X129450000Y-77847440D01*
X129685317Y-77803162D01*
X129774228Y-77745949D01*
X129808140Y-77769121D01*
X129837337Y-77915906D01*
X130016283Y-78183717D01*
X130174500Y-78341934D01*
X130174500Y-79158066D01*
X130016283Y-79316283D01*
X129837337Y-79584094D01*
X129837337Y-79584095D01*
X129774500Y-79900000D01*
X129774500Y-80226382D01*
X129626310Y-80165000D01*
X129285750Y-80165000D01*
X129127000Y-80323750D01*
X129127000Y-81423000D01*
X129147000Y-81423000D01*
X129147000Y-81677000D01*
X129127000Y-81677000D01*
X129127000Y-82776250D01*
X129285750Y-82935000D01*
X129397566Y-82935000D01*
X129158066Y-83174500D01*
X127000005Y-83174500D01*
X127000000Y-83174499D01*
X126684095Y-83237337D01*
X126416283Y-83416283D01*
X126416281Y-83416286D01*
X125427904Y-84404662D01*
X125323117Y-84151057D01*
X125060327Y-83887808D01*
X125044904Y-83881404D01*
X125045162Y-83584833D01*
X124903117Y-83241057D01*
X124640327Y-82977808D01*
X124296799Y-82835162D01*
X123924833Y-82834838D01*
X123581057Y-82976883D01*
X123317808Y-83239673D01*
X123207682Y-83504884D01*
X123106283Y-83606283D01*
X122927337Y-83874094D01*
X122902293Y-84000000D01*
X122864500Y-84190000D01*
X122864500Y-84263741D01*
X122551680Y-84000000D01*
X122892368Y-83712763D01*
X123094119Y-83301874D01*
X122967954Y-83127000D01*
X121127000Y-83127000D01*
X121127000Y-84873000D01*
X121147000Y-84873000D01*
X121147000Y-85127000D01*
X121127000Y-85127000D01*
X121127000Y-86135000D01*
X122127000Y-86135000D01*
X122551678Y-86000002D01*
X122864500Y-85736259D01*
X122864500Y-87282822D01*
X122661057Y-87366883D01*
X122397808Y-87629673D01*
X122255162Y-87973201D01*
X122254838Y-88345167D01*
X122396883Y-88688943D01*
X122495123Y-88787354D01*
X122606283Y-88953717D01*
X122614500Y-88961934D01*
X122614500Y-92868066D01*
X119436472Y-96046094D01*
X119311458Y-95921080D01*
X119086952Y-95921080D01*
X117743979Y-97264053D01*
X117758122Y-97278196D01*
X117578517Y-97457801D01*
X117564374Y-97443658D01*
X116221401Y-98786631D01*
X116221401Y-99011137D01*
X116283585Y-99073321D01*
X116462214Y-99251949D01*
X116695603Y-99348622D01*
X116948222Y-99348621D01*
X117074500Y-99296315D01*
X117074500Y-101929639D01*
X114851909Y-104152230D01*
X114672963Y-104420041D01*
X114657058Y-104500000D01*
X114610126Y-104735947D01*
X114610126Y-106938722D01*
X113528248Y-108020600D01*
X113393163Y-108218303D01*
X113338679Y-108469465D01*
X113386203Y-108722036D01*
X113528248Y-108936218D01*
X114235355Y-109643325D01*
X114433058Y-109778410D01*
X114684220Y-109832894D01*
X114936791Y-109785370D01*
X115150973Y-109643325D01*
X117343004Y-107451294D01*
X117478089Y-107253591D01*
X117532573Y-107002429D01*
X117485049Y-106749858D01*
X117343004Y-106535676D01*
X116635897Y-105828569D01*
X116438194Y-105693484D01*
X116261126Y-105655073D01*
X116261126Y-105077881D01*
X118483717Y-102855290D01*
X118662663Y-102587479D01*
X118725500Y-102271573D01*
X118725500Y-99091934D01*
X123364500Y-94452934D01*
X123364500Y-99956530D01*
X122936218Y-99528248D01*
X122738515Y-99393163D01*
X122487353Y-99338679D01*
X122234782Y-99386203D01*
X122020600Y-99528248D01*
X119828569Y-101720279D01*
X119693484Y-101917982D01*
X119639000Y-102169144D01*
X119686524Y-102421715D01*
X119828569Y-102635897D01*
X120371195Y-103178523D01*
X120307337Y-103274094D01*
X120255695Y-103533717D01*
X120244500Y-103590000D01*
X120244500Y-109474280D01*
X120171431Y-109364103D01*
X119464324Y-108656996D01*
X119266621Y-108521911D01*
X119015459Y-108467427D01*
X118762888Y-108514951D01*
X118548706Y-108656996D01*
X116356675Y-110849027D01*
X116221590Y-111046730D01*
X116167106Y-111297892D01*
X116214630Y-111550463D01*
X116356675Y-111764645D01*
X117063782Y-112471752D01*
X117261485Y-112606837D01*
X117512647Y-112661321D01*
X117765218Y-112613797D01*
X117979400Y-112471752D01*
X120171431Y-110279721D01*
X120244500Y-110172781D01*
X120244500Y-112408067D01*
X118104178Y-114548389D01*
X118104838Y-114546799D01*
X118105162Y-114174833D01*
X117963117Y-113831057D01*
X117700327Y-113567808D01*
X117356799Y-113425162D01*
X116984833Y-113424838D01*
X116641057Y-113566883D01*
X116377808Y-113829673D01*
X116267682Y-114094885D01*
X115965440Y-114397127D01*
X115965440Y-114171200D01*
X115921162Y-113935883D01*
X115782090Y-113719759D01*
X115569890Y-113574769D01*
X115318000Y-113523760D01*
X113286000Y-113523760D01*
X113050683Y-113568038D01*
X112834559Y-113707110D01*
X112689569Y-113919310D01*
X112638560Y-114171200D01*
X112638560Y-115174500D01*
X109264279Y-115174500D01*
X109178090Y-115040559D01*
X108965890Y-114895569D01*
X108775431Y-114857000D01*
X108840310Y-114857000D01*
X109073699Y-114760327D01*
X109252327Y-114581698D01*
X109349000Y-114348309D01*
X109349000Y-113999750D01*
X109190250Y-113841000D01*
X107825000Y-113841000D01*
X107825000Y-113861000D01*
X107571000Y-113861000D01*
X107571000Y-113841000D01*
X106205750Y-113841000D01*
X106047000Y-113999750D01*
X106047000Y-114023974D01*
X105984699Y-113961673D01*
X105751310Y-113865000D01*
X105285750Y-113865000D01*
X105127000Y-114023750D01*
X105127000Y-114873000D01*
X106101250Y-114873000D01*
X106260000Y-114714250D01*
X106260000Y-114698026D01*
X106322301Y-114760327D01*
X106555690Y-114857000D01*
X106615887Y-114857000D01*
X106446683Y-114888838D01*
X106230559Y-115027910D01*
X106137848Y-115163598D01*
X106101250Y-115127000D01*
X105127000Y-115127000D01*
X105127000Y-115147000D01*
X104873000Y-115147000D01*
X104873000Y-115127000D01*
X103898750Y-115127000D01*
X103851250Y-115174500D01*
X103699287Y-115174500D01*
X103676799Y-115165162D01*
X103304833Y-115164838D01*
X102961057Y-115306883D01*
X102855500Y-115412256D01*
X102855500Y-114373691D01*
X103740000Y-114373691D01*
X103740000Y-114714250D01*
X103898750Y-114873000D01*
X104873000Y-114873000D01*
X104873000Y-114023750D01*
X104714250Y-113865000D01*
X104248690Y-113865000D01*
X104015301Y-113961673D01*
X103836673Y-114140302D01*
X103740000Y-114373691D01*
X102855500Y-114373691D01*
X102855500Y-113079691D01*
X106047000Y-113079691D01*
X106047000Y-113428250D01*
X106205750Y-113587000D01*
X107571000Y-113587000D01*
X107571000Y-112729750D01*
X107412250Y-112571000D01*
X106555690Y-112571000D01*
X106322301Y-112667673D01*
X106143673Y-112846302D01*
X106047000Y-113079691D01*
X102855500Y-113079691D01*
X102855500Y-109812968D01*
X105639000Y-109812968D01*
X105686524Y-110065539D01*
X105828569Y-110279721D01*
X108020600Y-112471752D01*
X108165854Y-112571000D01*
X107983750Y-112571000D01*
X107825000Y-112729750D01*
X107825000Y-113587000D01*
X109190250Y-113587000D01*
X109349000Y-113428250D01*
X109349000Y-113079691D01*
X109252327Y-112846302D01*
X109073699Y-112667673D01*
X108840310Y-112571000D01*
X108786567Y-112571000D01*
X108936218Y-112471752D01*
X109643325Y-111764645D01*
X109778410Y-111566942D01*
X109832894Y-111315780D01*
X109785370Y-111063209D01*
X109643325Y-110849027D01*
X108561447Y-109767149D01*
X108561447Y-107307221D01*
X108656996Y-107451294D01*
X110849027Y-109643325D01*
X111046730Y-109778410D01*
X111297892Y-109832894D01*
X111550463Y-109785370D01*
X111764645Y-109643325D01*
X112471752Y-108936218D01*
X112606837Y-108738515D01*
X112661321Y-108487353D01*
X112613797Y-108234782D01*
X112471752Y-108020600D01*
X110279721Y-105828569D01*
X110082018Y-105693484D01*
X109830856Y-105639000D01*
X109578285Y-105686524D01*
X109364103Y-105828569D01*
X108656996Y-106535676D01*
X108561447Y-106675516D01*
X108561447Y-106615947D01*
X108498610Y-106300042D01*
X108319664Y-106032230D01*
X108319661Y-106032228D01*
X107741994Y-105454561D01*
X107633117Y-105191057D01*
X107370327Y-104927808D01*
X107026799Y-104785162D01*
X106654833Y-104784838D01*
X106311057Y-104926883D01*
X106047808Y-105189673D01*
X105905162Y-105533201D01*
X105904838Y-105905167D01*
X106046883Y-106248943D01*
X106309673Y-106512192D01*
X106574884Y-106622318D01*
X106910447Y-106957880D01*
X106910447Y-108484734D01*
X106749858Y-108514951D01*
X106535676Y-108656996D01*
X105828569Y-109364103D01*
X105693484Y-109561806D01*
X105639000Y-109812968D01*
X102855500Y-109812968D01*
X102855500Y-107483507D01*
X106041115Y-104297892D01*
X109167106Y-104297892D01*
X109214630Y-104550463D01*
X109356675Y-104764645D01*
X110063782Y-105471752D01*
X110261485Y-105606837D01*
X110512647Y-105661321D01*
X110765218Y-105613797D01*
X110979400Y-105471752D01*
X113171431Y-103279721D01*
X113306516Y-103082018D01*
X113361000Y-102830856D01*
X113313476Y-102578285D01*
X113171431Y-102364103D01*
X112464324Y-101656996D01*
X112266621Y-101521911D01*
X112015459Y-101467427D01*
X111762888Y-101514951D01*
X111548706Y-101656996D01*
X109356675Y-103849027D01*
X109221590Y-104046730D01*
X109167106Y-104297892D01*
X106041115Y-104297892D01*
X107537862Y-102801145D01*
X107684220Y-102832894D01*
X107936791Y-102785370D01*
X108150973Y-102643325D01*
X110343004Y-100451294D01*
X110478089Y-100253591D01*
X110532573Y-100002429D01*
X110485049Y-99749858D01*
X110343004Y-99535676D01*
X109635897Y-98828569D01*
X109438194Y-98693484D01*
X109261126Y-98655073D01*
X109261126Y-98132824D01*
X115479805Y-98132824D01*
X115576478Y-98366213D01*
X115755106Y-98544842D01*
X115817290Y-98607026D01*
X116041796Y-98607026D01*
X117384769Y-97264053D01*
X116784258Y-96663543D01*
X116559752Y-96663543D01*
X115576478Y-97646816D01*
X115479806Y-97880205D01*
X115479805Y-98132824D01*
X109261126Y-98132824D01*
X109261126Y-95515626D01*
X109198289Y-95199721D01*
X109019343Y-94931909D01*
X109019340Y-94931907D01*
X108291994Y-94204560D01*
X108183117Y-93941057D01*
X108067761Y-93825500D01*
X110460000Y-93825500D01*
X110775906Y-93762663D01*
X111043717Y-93583717D01*
X111081841Y-93545593D01*
X111222641Y-93573600D01*
X111281359Y-93573600D01*
X111854848Y-93459526D01*
X112320442Y-93148426D01*
X112325238Y-93173917D01*
X112464310Y-93390041D01*
X112676510Y-93535031D01*
X112928400Y-93586040D01*
X113962808Y-93586040D01*
X112828569Y-94720279D01*
X112693484Y-94917982D01*
X112639000Y-95169144D01*
X112686524Y-95421715D01*
X112828569Y-95635897D01*
X113535676Y-96343004D01*
X113733379Y-96478089D01*
X113984541Y-96532573D01*
X114237112Y-96485049D01*
X114451294Y-96343004D01*
X114534867Y-96259431D01*
X116963864Y-96259431D01*
X116963864Y-96483937D01*
X117564374Y-97084448D01*
X118907347Y-95741475D01*
X118907347Y-95516969D01*
X118845163Y-95454785D01*
X118666534Y-95276157D01*
X118433145Y-95179484D01*
X118180526Y-95179485D01*
X117947137Y-95276157D01*
X116963864Y-96259431D01*
X114534867Y-96259431D01*
X116643325Y-94150973D01*
X116778410Y-93953270D01*
X116832894Y-93702108D01*
X116785370Y-93449537D01*
X116643325Y-93235355D01*
X115936218Y-92528248D01*
X115759757Y-92407677D01*
X117341934Y-90825500D01*
X117549887Y-90825500D01*
X117813201Y-90934838D01*
X117944865Y-90934953D01*
X118035910Y-91076441D01*
X118248110Y-91221431D01*
X118500000Y-91272440D01*
X119500000Y-91272440D01*
X119735317Y-91228162D01*
X119951441Y-91089090D01*
X119997969Y-91020994D01*
X120140302Y-91163327D01*
X120373691Y-91260000D01*
X120714250Y-91260000D01*
X120873000Y-91101250D01*
X120873000Y-90127000D01*
X121127000Y-90127000D01*
X121127000Y-91101250D01*
X121285750Y-91260000D01*
X121626309Y-91260000D01*
X121859698Y-91163327D01*
X122038327Y-90984699D01*
X122135000Y-90751310D01*
X122135000Y-90285750D01*
X121976250Y-90127000D01*
X121127000Y-90127000D01*
X120873000Y-90127000D01*
X120853000Y-90127000D01*
X120853000Y-89873000D01*
X120873000Y-89873000D01*
X120873000Y-88898750D01*
X121127000Y-88898750D01*
X121127000Y-89873000D01*
X121976250Y-89873000D01*
X122135000Y-89714250D01*
X122135000Y-89248690D01*
X122038327Y-89015301D01*
X121859698Y-88836673D01*
X121626309Y-88740000D01*
X121285750Y-88740000D01*
X121127000Y-88898750D01*
X120873000Y-88898750D01*
X120714250Y-88740000D01*
X120373691Y-88740000D01*
X120140302Y-88836673D01*
X119999064Y-88977910D01*
X119964090Y-88923559D01*
X119751890Y-88778569D01*
X119500000Y-88727560D01*
X118500000Y-88727560D01*
X118264683Y-88771838D01*
X118048559Y-88910910D01*
X117943308Y-89064950D01*
X117814833Y-89064838D01*
X117549430Y-89174500D01*
X117341934Y-89174500D01*
X116287144Y-88119710D01*
X116434346Y-88090430D01*
X116802566Y-87844393D01*
X117000000Y-87548912D01*
X117197434Y-87844393D01*
X117565654Y-88090430D01*
X118000000Y-88176827D01*
X118434346Y-88090430D01*
X118802566Y-87844393D01*
X119048603Y-87476173D01*
X119135000Y-87041827D01*
X119135000Y-85735837D01*
X119448322Y-86000002D01*
X119873000Y-86135000D01*
X120873000Y-86135000D01*
X120873000Y-85127000D01*
X120853000Y-85127000D01*
X120853000Y-84873000D01*
X120873000Y-84873000D01*
X120873000Y-83127000D01*
X119032046Y-83127000D01*
X118905881Y-83301874D01*
X119107632Y-83712763D01*
X119448320Y-84000000D01*
X119107632Y-84287237D01*
X119015667Y-84474535D01*
X118802566Y-84155607D01*
X118434346Y-83909570D01*
X118000000Y-83823173D01*
X117565654Y-83909570D01*
X117197434Y-84155607D01*
X117000000Y-84451088D01*
X116802566Y-84155607D01*
X116434346Y-83909570D01*
X116000000Y-83823173D01*
X115565654Y-83909570D01*
X115197434Y-84155607D01*
X115000000Y-84451088D01*
X114802566Y-84155607D01*
X114434346Y-83909570D01*
X114000000Y-83823173D01*
X113565654Y-83909570D01*
X113197434Y-84155607D01*
X113000000Y-84451088D01*
X112802566Y-84155607D01*
X112434346Y-83909570D01*
X112000000Y-83823173D01*
X111565654Y-83909570D01*
X111197434Y-84155607D01*
X111000000Y-84451088D01*
X110802566Y-84155607D01*
X110434346Y-83909570D01*
X110000000Y-83823173D01*
X109565654Y-83909570D01*
X109197434Y-84155607D01*
X109000000Y-84451088D01*
X108802566Y-84155607D01*
X108434346Y-83909570D01*
X108000000Y-83823173D01*
X107565654Y-83909570D01*
X107197434Y-84155607D01*
X107006940Y-84440702D01*
X106844393Y-84197434D01*
X106548912Y-84000000D01*
X106844393Y-83802566D01*
X107090430Y-83434346D01*
X107176827Y-83000000D01*
X107090430Y-82565654D01*
X106844393Y-82197434D01*
X106548912Y-82000000D01*
X106844393Y-81802566D01*
X107090430Y-81434346D01*
X107176827Y-81000000D01*
X107090430Y-80565654D01*
X106844393Y-80197434D01*
X106548912Y-80000000D01*
X106844393Y-79802566D01*
X107090430Y-79434346D01*
X107176827Y-79000000D01*
X107090430Y-78565654D01*
X106844393Y-78197434D01*
X106548912Y-78000000D01*
X106810070Y-77825500D01*
X107100000Y-77825500D01*
X107415906Y-77762663D01*
X107683717Y-77583717D01*
X108743714Y-76523719D01*
X108743717Y-76523717D01*
X108922663Y-76255905D01*
X108985500Y-75940000D01*
X108985500Y-72320005D01*
X108985501Y-72320000D01*
X108922663Y-72004094D01*
X108743717Y-71736283D01*
X107423717Y-70416283D01*
X107155906Y-70237337D01*
X106840000Y-70174500D01*
X106810070Y-70174500D01*
X106738981Y-70127000D01*
X119261019Y-70127000D01*
X119155607Y-70197434D01*
G36*
X129774500Y-107746135D02*
X129774500Y-108600000D01*
X129837337Y-108915906D01*
X130016283Y-109183717D01*
X130174500Y-109341934D01*
X130174500Y-109658066D01*
X130016283Y-109816283D01*
X129837337Y-110084094D01*
X129807605Y-110233566D01*
X129801433Y-110237538D01*
X129626310Y-110165000D01*
X129285750Y-110165000D01*
X129127000Y-110323750D01*
X129127000Y-111423000D01*
X129147000Y-111423000D01*
X129147000Y-111677000D01*
X129127000Y-111677000D01*
X129127000Y-111697000D01*
X128873000Y-111697000D01*
X128873000Y-111677000D01*
X128853000Y-111677000D01*
X128853000Y-111423000D01*
X128873000Y-111423000D01*
X128873000Y-110323750D01*
X128714250Y-110165000D01*
X128373690Y-110165000D01*
X128200459Y-110236755D01*
X128151890Y-110203569D01*
X127900000Y-110152560D01*
X127169994Y-110152560D01*
X126825500Y-109808066D01*
X126825500Y-107832353D01*
X126900000Y-107847440D01*
X127900000Y-107847440D01*
X128135317Y-107803162D01*
X128172728Y-107779088D01*
X128198110Y-107796431D01*
X128450000Y-107847440D01*
X129450000Y-107847440D01*
X129685317Y-107803162D01*
X129774228Y-107745949D01*
X129774500Y-107746135D01*
X129774500Y-107746135D01*
G37*
X129774500Y-107746135D02*
X129774500Y-108600000D01*
X129837337Y-108915906D01*
X130016283Y-109183717D01*
X130174500Y-109341934D01*
X130174500Y-109658066D01*
X130016283Y-109816283D01*
X129837337Y-110084094D01*
X129807605Y-110233566D01*
X129801433Y-110237538D01*
X129626310Y-110165000D01*
X129285750Y-110165000D01*
X129127000Y-110323750D01*
X129127000Y-111423000D01*
X129147000Y-111423000D01*
X129147000Y-111677000D01*
X129127000Y-111677000D01*
X129127000Y-111697000D01*
X128873000Y-111697000D01*
X128873000Y-111677000D01*
X128853000Y-111677000D01*
X128853000Y-111423000D01*
X128873000Y-111423000D01*
X128873000Y-110323750D01*
X128714250Y-110165000D01*
X128373690Y-110165000D01*
X128200459Y-110236755D01*
X128151890Y-110203569D01*
X127900000Y-110152560D01*
X127169994Y-110152560D01*
X126825500Y-109808066D01*
X126825500Y-107832353D01*
X126900000Y-107847440D01*
X127900000Y-107847440D01*
X128135317Y-107803162D01*
X128172728Y-107779088D01*
X128198110Y-107796431D01*
X128450000Y-107847440D01*
X129450000Y-107847440D01*
X129685317Y-107803162D01*
X129774228Y-107745949D01*
X129774500Y-107746135D01*
G36*
X97127000Y-106323000D02*
X97147000Y-106323000D01*
X97147000Y-106577000D01*
X97127000Y-106577000D01*
X97127000Y-107676250D01*
X97285750Y-107835000D01*
X97626310Y-107835000D01*
X97799541Y-107763245D01*
X97848110Y-107796431D01*
X98100000Y-107847440D01*
X98830006Y-107847440D01*
X99174500Y-108191934D01*
X99174500Y-110167647D01*
X99100000Y-110152560D01*
X98100000Y-110152560D01*
X97864683Y-110196838D01*
X97827272Y-110220912D01*
X97801890Y-110203569D01*
X97550000Y-110152560D01*
X96550000Y-110152560D01*
X96314683Y-110196838D01*
X96225772Y-110254051D01*
X96225500Y-110253865D01*
X96225500Y-109900000D01*
X96162663Y-109584095D01*
X95983717Y-109316283D01*
X95983714Y-109316281D01*
X95825500Y-109158067D01*
X95825500Y-108841933D01*
X95983714Y-108683719D01*
X95983717Y-108683717D01*
X96162663Y-108415905D01*
X96225500Y-108100000D01*
X96225500Y-107773618D01*
X96373690Y-107835000D01*
X96714250Y-107835000D01*
X96873000Y-107676250D01*
X96873000Y-106577000D01*
X96853000Y-106577000D01*
X96853000Y-106323000D01*
X96873000Y-106323000D01*
X96873000Y-106303000D01*
X97127000Y-106303000D01*
X97127000Y-106323000D01*
X97127000Y-106323000D01*
G37*
X97127000Y-106323000D02*
X97147000Y-106323000D01*
X97147000Y-106577000D01*
X97127000Y-106577000D01*
X97127000Y-107676250D01*
X97285750Y-107835000D01*
X97626310Y-107835000D01*
X97799541Y-107763245D01*
X97848110Y-107796431D01*
X98100000Y-107847440D01*
X98830006Y-107847440D01*
X99174500Y-108191934D01*
X99174500Y-110167647D01*
X99100000Y-110152560D01*
X98100000Y-110152560D01*
X97864683Y-110196838D01*
X97827272Y-110220912D01*
X97801890Y-110203569D01*
X97550000Y-110152560D01*
X96550000Y-110152560D01*
X96314683Y-110196838D01*
X96225772Y-110254051D01*
X96225500Y-110253865D01*
X96225500Y-109900000D01*
X96162663Y-109584095D01*
X95983717Y-109316283D01*
X95983714Y-109316281D01*
X95825500Y-109158067D01*
X95825500Y-108841933D01*
X95983714Y-108683719D01*
X95983717Y-108683717D01*
X96162663Y-108415905D01*
X96225500Y-108100000D01*
X96225500Y-107773618D01*
X96373690Y-107835000D01*
X96714250Y-107835000D01*
X96873000Y-107676250D01*
X96873000Y-106577000D01*
X96853000Y-106577000D01*
X96853000Y-106323000D01*
X96873000Y-106323000D01*
X96873000Y-106303000D01*
X97127000Y-106303000D01*
X97127000Y-106323000D01*
G36*
X129808140Y-87769121D02*
X129837337Y-87915906D01*
X130016283Y-88183717D01*
X130174500Y-88341934D01*
X130174500Y-88658066D01*
X130016283Y-88816283D01*
X129837337Y-89084094D01*
X129826280Y-89139683D01*
X129774500Y-89400000D01*
X129774500Y-90226382D01*
X129626310Y-90165000D01*
X129285750Y-90165000D01*
X129127000Y-90323750D01*
X129127000Y-91423000D01*
X129147000Y-91423000D01*
X129147000Y-91677000D01*
X129127000Y-91677000D01*
X129127000Y-92776250D01*
X129285750Y-92935000D01*
X129397566Y-92935000D01*
X129158066Y-93174500D01*
X127000005Y-93174500D01*
X127000000Y-93174499D01*
X126694059Y-93235355D01*
X126684095Y-93237337D01*
X126416283Y-93416283D01*
X126416281Y-93416286D01*
X125745500Y-94087066D01*
X125745500Y-91062934D01*
X126252560Y-91569994D01*
X126252560Y-92300000D01*
X126296838Y-92535317D01*
X126435910Y-92751441D01*
X126648110Y-92896431D01*
X126900000Y-92947440D01*
X127900000Y-92947440D01*
X128135317Y-92903162D01*
X128198567Y-92862462D01*
X128373690Y-92935000D01*
X128714250Y-92935000D01*
X128873000Y-92776250D01*
X128873000Y-91677000D01*
X128853000Y-91677000D01*
X128853000Y-91423000D01*
X128873000Y-91423000D01*
X128873000Y-90323750D01*
X128714250Y-90165000D01*
X128373690Y-90165000D01*
X128200459Y-90236755D01*
X128151890Y-90203569D01*
X127900000Y-90152560D01*
X127169994Y-90152560D01*
X126825500Y-89808066D01*
X126825500Y-87832353D01*
X126900000Y-87847440D01*
X127900000Y-87847440D01*
X128135317Y-87803162D01*
X128172728Y-87779088D01*
X128198110Y-87796431D01*
X128450000Y-87847440D01*
X129450000Y-87847440D01*
X129685317Y-87803162D01*
X129774228Y-87745949D01*
X129808140Y-87769121D01*
X129808140Y-87769121D01*
G37*
X129808140Y-87769121D02*
X129837337Y-87915906D01*
X130016283Y-88183717D01*
X130174500Y-88341934D01*
X130174500Y-88658066D01*
X130016283Y-88816283D01*
X129837337Y-89084094D01*
X129826280Y-89139683D01*
X129774500Y-89400000D01*
X129774500Y-90226382D01*
X129626310Y-90165000D01*
X129285750Y-90165000D01*
X129127000Y-90323750D01*
X129127000Y-91423000D01*
X129147000Y-91423000D01*
X129147000Y-91677000D01*
X129127000Y-91677000D01*
X129127000Y-92776250D01*
X129285750Y-92935000D01*
X129397566Y-92935000D01*
X129158066Y-93174500D01*
X127000005Y-93174500D01*
X127000000Y-93174499D01*
X126694059Y-93235355D01*
X126684095Y-93237337D01*
X126416283Y-93416283D01*
X126416281Y-93416286D01*
X125745500Y-94087066D01*
X125745500Y-91062934D01*
X126252560Y-91569994D01*
X126252560Y-92300000D01*
X126296838Y-92535317D01*
X126435910Y-92751441D01*
X126648110Y-92896431D01*
X126900000Y-92947440D01*
X127900000Y-92947440D01*
X128135317Y-92903162D01*
X128198567Y-92862462D01*
X128373690Y-92935000D01*
X128714250Y-92935000D01*
X128873000Y-92776250D01*
X128873000Y-91677000D01*
X128853000Y-91677000D01*
X128853000Y-91423000D01*
X128873000Y-91423000D01*
X128873000Y-90323750D01*
X128714250Y-90165000D01*
X128373690Y-90165000D01*
X128200459Y-90236755D01*
X128151890Y-90203569D01*
X127900000Y-90152560D01*
X127169994Y-90152560D01*
X126825500Y-89808066D01*
X126825500Y-87832353D01*
X126900000Y-87847440D01*
X127900000Y-87847440D01*
X128135317Y-87803162D01*
X128172728Y-87779088D01*
X128198110Y-87796431D01*
X128450000Y-87847440D01*
X129450000Y-87847440D01*
X129685317Y-87803162D01*
X129774228Y-87745949D01*
X129808140Y-87769121D01*
G36*
X115832566Y-90000000D02*
X115091719Y-90740847D01*
X114907490Y-90614969D01*
X114813625Y-90595961D01*
X115074688Y-90309947D01*
X115246958Y-89894026D01*
X115125817Y-89662000D01*
X113919000Y-89662000D01*
X113919000Y-89682000D01*
X113665000Y-89682000D01*
X113665000Y-89662000D01*
X113645000Y-89662000D01*
X113645000Y-89408000D01*
X113665000Y-89408000D01*
X113665000Y-89388000D01*
X113919000Y-89388000D01*
X113919000Y-89408000D01*
X115125817Y-89408000D01*
X115165177Y-89332611D01*
X115832566Y-90000000D01*
X115832566Y-90000000D01*
G37*
X115832566Y-90000000D02*
X115091719Y-90740847D01*
X114907490Y-90614969D01*
X114813625Y-90595961D01*
X115074688Y-90309947D01*
X115246958Y-89894026D01*
X115125817Y-89662000D01*
X113919000Y-89662000D01*
X113919000Y-89682000D01*
X113665000Y-89682000D01*
X113665000Y-89662000D01*
X113645000Y-89662000D01*
X113645000Y-89408000D01*
X113665000Y-89408000D01*
X113665000Y-89388000D01*
X113919000Y-89388000D01*
X113919000Y-89408000D01*
X115125817Y-89408000D01*
X115165177Y-89332611D01*
X115832566Y-90000000D01*
G36*
X97127000Y-86323000D02*
X97147000Y-86323000D01*
X97147000Y-86577000D01*
X97127000Y-86577000D01*
X97127000Y-87676250D01*
X97285750Y-87835000D01*
X97626310Y-87835000D01*
X97799541Y-87763245D01*
X97848110Y-87796431D01*
X98100000Y-87847440D01*
X98830006Y-87847440D01*
X99174500Y-88191934D01*
X99174500Y-90167647D01*
X99100000Y-90152560D01*
X98100000Y-90152560D01*
X97864683Y-90196838D01*
X97827272Y-90220912D01*
X97801890Y-90203569D01*
X97550000Y-90152560D01*
X96550000Y-90152560D01*
X96314683Y-90196838D01*
X96225772Y-90254051D01*
X96225500Y-90253865D01*
X96225500Y-89900000D01*
X96162663Y-89584095D01*
X95983717Y-89316283D01*
X95983714Y-89316281D01*
X95825500Y-89158067D01*
X95825500Y-88341933D01*
X95983714Y-88183719D01*
X95983717Y-88183717D01*
X96162663Y-87915905D01*
X96192395Y-87766434D01*
X96198567Y-87762462D01*
X96373690Y-87835000D01*
X96714250Y-87835000D01*
X96873000Y-87676250D01*
X96873000Y-86577000D01*
X96853000Y-86577000D01*
X96853000Y-86323000D01*
X96873000Y-86323000D01*
X96873000Y-86303000D01*
X97127000Y-86303000D01*
X97127000Y-86323000D01*
X97127000Y-86323000D01*
G37*
X97127000Y-86323000D02*
X97147000Y-86323000D01*
X97147000Y-86577000D01*
X97127000Y-86577000D01*
X97127000Y-87676250D01*
X97285750Y-87835000D01*
X97626310Y-87835000D01*
X97799541Y-87763245D01*
X97848110Y-87796431D01*
X98100000Y-87847440D01*
X98830006Y-87847440D01*
X99174500Y-88191934D01*
X99174500Y-90167647D01*
X99100000Y-90152560D01*
X98100000Y-90152560D01*
X97864683Y-90196838D01*
X97827272Y-90220912D01*
X97801890Y-90203569D01*
X97550000Y-90152560D01*
X96550000Y-90152560D01*
X96314683Y-90196838D01*
X96225772Y-90254051D01*
X96225500Y-90253865D01*
X96225500Y-89900000D01*
X96162663Y-89584095D01*
X95983717Y-89316283D01*
X95983714Y-89316281D01*
X95825500Y-89158067D01*
X95825500Y-88341933D01*
X95983714Y-88183719D01*
X95983717Y-88183717D01*
X96162663Y-87915905D01*
X96192395Y-87766434D01*
X96198567Y-87762462D01*
X96373690Y-87835000D01*
X96714250Y-87835000D01*
X96873000Y-87676250D01*
X96873000Y-86577000D01*
X96853000Y-86577000D01*
X96853000Y-86323000D01*
X96873000Y-86323000D01*
X96873000Y-86303000D01*
X97127000Y-86303000D01*
X97127000Y-86323000D01*
G36*
X94900000Y-72947440D02*
X95900000Y-72947440D01*
X96065072Y-72916380D01*
X96064838Y-73185167D01*
X96206883Y-73528943D01*
X96436131Y-73758591D01*
X96466283Y-73803717D01*
X97799166Y-75136599D01*
X97626310Y-75065000D01*
X97285750Y-75065000D01*
X97127000Y-75223750D01*
X97127000Y-76323000D01*
X97147000Y-76323000D01*
X97147000Y-76577000D01*
X97127000Y-76577000D01*
X97127000Y-77676250D01*
X97285750Y-77835000D01*
X97626310Y-77835000D01*
X97799541Y-77763245D01*
X97848110Y-77796431D01*
X98100000Y-77847440D01*
X98830006Y-77847440D01*
X99174500Y-78191934D01*
X99174500Y-80167647D01*
X99100000Y-80152560D01*
X98100000Y-80152560D01*
X97864683Y-80196838D01*
X97827272Y-80220912D01*
X97801890Y-80203569D01*
X97550000Y-80152560D01*
X96550000Y-80152560D01*
X96314683Y-80196838D01*
X96225772Y-80254051D01*
X96225500Y-80253865D01*
X96225500Y-77773618D01*
X96373690Y-77835000D01*
X96714250Y-77835000D01*
X96873000Y-77676250D01*
X96873000Y-76577000D01*
X96853000Y-76577000D01*
X96853000Y-76323000D01*
X96873000Y-76323000D01*
X96873000Y-75223750D01*
X96714250Y-75065000D01*
X96373690Y-75065000D01*
X96200459Y-75136755D01*
X96151890Y-75103569D01*
X95900000Y-75052560D01*
X94900000Y-75052560D01*
X94710000Y-75088311D01*
X94710000Y-72908964D01*
X94900000Y-72947440D01*
X94900000Y-72947440D01*
G37*
X94900000Y-72947440D02*
X95900000Y-72947440D01*
X96065072Y-72916380D01*
X96064838Y-73185167D01*
X96206883Y-73528943D01*
X96436131Y-73758591D01*
X96466283Y-73803717D01*
X97799166Y-75136599D01*
X97626310Y-75065000D01*
X97285750Y-75065000D01*
X97127000Y-75223750D01*
X97127000Y-76323000D01*
X97147000Y-76323000D01*
X97147000Y-76577000D01*
X97127000Y-76577000D01*
X97127000Y-77676250D01*
X97285750Y-77835000D01*
X97626310Y-77835000D01*
X97799541Y-77763245D01*
X97848110Y-77796431D01*
X98100000Y-77847440D01*
X98830006Y-77847440D01*
X99174500Y-78191934D01*
X99174500Y-80167647D01*
X99100000Y-80152560D01*
X98100000Y-80152560D01*
X97864683Y-80196838D01*
X97827272Y-80220912D01*
X97801890Y-80203569D01*
X97550000Y-80152560D01*
X96550000Y-80152560D01*
X96314683Y-80196838D01*
X96225772Y-80254051D01*
X96225500Y-80253865D01*
X96225500Y-77773618D01*
X96373690Y-77835000D01*
X96714250Y-77835000D01*
X96873000Y-77676250D01*
X96873000Y-76577000D01*
X96853000Y-76577000D01*
X96853000Y-76323000D01*
X96873000Y-76323000D01*
X96873000Y-75223750D01*
X96714250Y-75065000D01*
X96373690Y-75065000D01*
X96200459Y-75136755D01*
X96151890Y-75103569D01*
X95900000Y-75052560D01*
X94900000Y-75052560D01*
X94710000Y-75088311D01*
X94710000Y-72908964D01*
X94900000Y-72947440D01*
G36*
X131002639Y-70152560D02*
X130100000Y-70152560D01*
X129864683Y-70196838D01*
X129801433Y-70237538D01*
X129626310Y-70165000D01*
X129285750Y-70165000D01*
X129127000Y-70323750D01*
X129127000Y-71423000D01*
X129147000Y-71423000D01*
X129147000Y-71677000D01*
X129127000Y-71677000D01*
X129127000Y-72776250D01*
X129285750Y-72935000D01*
X129397566Y-72935000D01*
X129158066Y-73174500D01*
X125341933Y-73174500D01*
X124583717Y-72416283D01*
X124538793Y-72386266D01*
X124654838Y-72106799D01*
X124655162Y-71734833D01*
X124513117Y-71391057D01*
X124250327Y-71127808D01*
X123985115Y-71017682D01*
X123767434Y-70800000D01*
X126252560Y-70800000D01*
X126252560Y-72300000D01*
X126296838Y-72535317D01*
X126435910Y-72751441D01*
X126648110Y-72896431D01*
X126900000Y-72947440D01*
X127900000Y-72947440D01*
X128135317Y-72903162D01*
X128198567Y-72862462D01*
X128373690Y-72935000D01*
X128714250Y-72935000D01*
X128873000Y-72776250D01*
X128873000Y-71677000D01*
X128853000Y-71677000D01*
X128853000Y-71423000D01*
X128873000Y-71423000D01*
X128873000Y-70323750D01*
X128714250Y-70165000D01*
X128373690Y-70165000D01*
X128200459Y-70236755D01*
X128151890Y-70203569D01*
X127900000Y-70152560D01*
X126900000Y-70152560D01*
X126664683Y-70196838D01*
X126448559Y-70335910D01*
X126303569Y-70548110D01*
X126252560Y-70800000D01*
X123767434Y-70800000D01*
X123383717Y-70416283D01*
X123115906Y-70237337D01*
X122814338Y-70177352D01*
X122738981Y-70127000D01*
X130967494Y-70127000D01*
X131002639Y-70152560D01*
X131002639Y-70152560D01*
G37*
X131002639Y-70152560D02*
X130100000Y-70152560D01*
X129864683Y-70196838D01*
X129801433Y-70237538D01*
X129626310Y-70165000D01*
X129285750Y-70165000D01*
X129127000Y-70323750D01*
X129127000Y-71423000D01*
X129147000Y-71423000D01*
X129147000Y-71677000D01*
X129127000Y-71677000D01*
X129127000Y-72776250D01*
X129285750Y-72935000D01*
X129397566Y-72935000D01*
X129158066Y-73174500D01*
X125341933Y-73174500D01*
X124583717Y-72416283D01*
X124538793Y-72386266D01*
X124654838Y-72106799D01*
X124655162Y-71734833D01*
X124513117Y-71391057D01*
X124250327Y-71127808D01*
X123985115Y-71017682D01*
X123767434Y-70800000D01*
X126252560Y-70800000D01*
X126252560Y-72300000D01*
X126296838Y-72535317D01*
X126435910Y-72751441D01*
X126648110Y-72896431D01*
X126900000Y-72947440D01*
X127900000Y-72947440D01*
X128135317Y-72903162D01*
X128198567Y-72862462D01*
X128373690Y-72935000D01*
X128714250Y-72935000D01*
X128873000Y-72776250D01*
X128873000Y-71677000D01*
X128853000Y-71677000D01*
X128853000Y-71423000D01*
X128873000Y-71423000D01*
X128873000Y-70323750D01*
X128714250Y-70165000D01*
X128373690Y-70165000D01*
X128200459Y-70236755D01*
X128151890Y-70203569D01*
X127900000Y-70152560D01*
X126900000Y-70152560D01*
X126664683Y-70196838D01*
X126448559Y-70335910D01*
X126303569Y-70548110D01*
X126252560Y-70800000D01*
X123767434Y-70800000D01*
X123383717Y-70416283D01*
X123115906Y-70237337D01*
X122814338Y-70177352D01*
X122738981Y-70127000D01*
X130967494Y-70127000D01*
X131002639Y-70152560D01*
M02*
